<?xml version="1.0" encoding="UTF-8"?>
<svg version="1.1" viewBox="0 0 24 24" xmlns="http://www.w3.org/2000/svg" xmlns:xlink="http://www.w3.org/1999/xlink">
    <!--Generated by IJSVG (https://github.com/iconjar/IJSVG)-->
    <g fill="#FFF">
        <path d="M11.114,14.556l7.68138e-08,7.65891e-08c0.488638,0.487209 1.27936,0.487209 1.768,-1.53178e-07l9.686,-9.686l1.46922e-08,-1.46387e-08c0.195618,-0.194906 0.196196,-0.511488 0.00128988,-0.707106c-0.0762869,-0.0765658 -0.17533,-0.12635 -0.28229,-0.141894l8.72708e-08,1.28589e-08c-0.0950249,-0.0140014 -0.190948,-0.0210202 -0.286999,-0.021h-20l2.06709e-08,2.52851e-11c-0.0967182,-0.000118314 -0.193313,0.00690067 -0.288998,0.0209998l-5.65704e-08,8.22118e-09c-0.273272,0.0397136 -0.462608,0.293438 -0.422894,0.56671c0.0155441,0.10696 0.0653287,0.206003 0.141894,0.28229Z"></path>
        <path d="M23.888,5.832l-9.14953e-09,-3.8852e-09c-0.0683783,-0.0290358 -0.14754,-0.0135991 -0.2,0.039l-6.2,6.2l-1.36002e-08,1.36745e-08c-0.0973783,0.0979099 -0.0973783,0.25609 2.70856e-08,0.354l5.043,5.043l-5.12031e-10,-4.94072e-10c0.298073,0.28762 0.306546,0.762419 0.0189255,1.06049c-0.28762,0.298073 -0.762419,0.306546 -1.06049,0.0189255c-0.00625093,-0.00603173 -0.0123966,-0.0121716 -0.0184342,-0.0184168l-5.043,-5.043l2.20687e-09,2.21245e-09c-0.0975076,-0.0977544 -0.255799,-0.0979545 -0.353553,-0.000446896c-0.000149152,0.000148776 -0.000298116,0.00029774 -0.000446892,0.000446892l-2.129,2.129l5.67374e-08,-5.67057e-08c-1.07382,1.07322 -2.81418,1.07322 -3.888,1.13411e-07l-2.131,-2.127l1.53199e-08,1.52367e-08c-0.0979099,-0.0973783 -0.25609,-0.0973783 -0.354,-3.05884e-08l-5.043,5.043l-5.12049e-10,4.94094e-10c-0.298073,0.28762 -0.772871,0.279147 -1.06049,-0.0189255c-0.280579,-0.290776 -0.280362,-0.751564 0.000491314,-1.04207l5.043,-5.043l8.67641e-09,-8.72377e-09c0.0973783,-0.0979099 0.0973783,-0.25609 -1.72379e-08,-0.354l-6.2,-6.2l2.60856e-09,2.65516e-09c-0.0521831,-0.0531155 -0.131684,-0.0686181 -0.2,-0.039l7.75355e-09,-3.23005e-09c-0.0671548,0.027976 -0.111199,0.0932554 -0.112,0.166v12l2.13163e-14,-3.01992e-07c-1.66785e-07,1.10457 0.89543,2 2,2h20l-8.74228e-08,-3.55271e-15c1.10457,4.82823e-08 2,-0.89543 2,-2v-12l8.92946e-10,-2.4218e-07c0.000271159,-0.0735554 -0.0439986,-0.13996 -0.112,-0.168Z"></path>
    </g>
</svg>