<?xml version="1.0" encoding="UTF-8"?>
<svg width="500px" height="152px" viewBox="0 0 500 152" version="1.1" xmlns="http://www.w3.org/2000/svg" xmlns:xlink="http://www.w3.org/1999/xlink">
    <title>portfolio/National Funding/national funding logo full</title>
    <defs>
        <polygon id="path-1" points="0 150.30914 500 150.30914 500 0.309139785 0 0.309139785"></polygon>
    </defs>
    <g id="portfolio" stroke="none" stroke-width="1" fill="none" fill-rule="evenodd">
        <g id="national-funding-logo-full" transform="translate(-50.000000, -223.000000)">
            <g id="portfolio/National-Funding/national-funding-logo-full" transform="translate(50.000000, 223.000000)">
                <polygon id="Fill-1" fill="#E4DED5" points="152.33871 3.45564516 164.276882 3.45564516 191.854839 39.6895161 191.854839 3.45564516 204.637097 3.45564516 204.637097 62.3077957 193.61828 62.3077957 165.120968 24.8938172 165.120968 62.3077957 152.33871 62.3077957"></polygon>
                <g id="Group-22" transform="translate(0.000000, 0.377688)">
                    <path d="M244.052957,46.0389785 L244.052957,43.7701613 C241.867473,42.7594086 239.007258,42.0873656 235.899731,42.0873656 C230.434677,42.0873656 227.069086,44.2728495 227.069086,48.3104839 L227.069086,48.4798387 C227.069086,51.9260753 229.926613,53.9422043 234.047581,53.9422043 C240.015323,53.9422043 244.052957,50.6626344 244.052957,46.0389785 Z M214.711559,48.9825269 L214.711559,48.8158602 C214.711559,38.9771505 222.19543,34.4395161 232.870161,34.4395161 C237.407796,34.4395161 240.687366,35.1948925 243.883602,36.2862903 L243.883602,35.530914 C243.883602,30.2325269 240.604032,27.2943548 234.214247,27.2943548 C229.340591,27.2943548 225.891667,28.2163978 221.773387,29.7298387 L218.577151,19.9771505 C223.539516,17.7916667 228.413172,16.3615591 236.06371,16.3615591 C243.044892,16.3615591 248.087903,18.2110215 251.28414,21.4072581 C254.641667,24.7701613 256.157796,29.7298387 256.157796,35.7836022 L256.157796,61.9287634 L243.797581,61.9287634 L243.797581,57.0551075 C240.687366,60.4986559 236.399731,62.7728495 230.176613,62.7728495 C221.687366,62.7728495 214.711559,57.8938172 214.711559,48.9825269 Z" id="Fill-2" fill="#E4DED5"></path>
                    <path d="M268.850269,49.1524194 L268.850269,27.7948925 L263.468548,27.7948925 L263.468548,16.8674731 L268.850269,16.8674731 L268.850269,5.35134409 L281.632527,5.35134409 L281.632527,16.8674731 L292.221237,16.8674731 L292.221237,27.7948925 L281.632527,27.7948925 L281.632527,47.0475806 C281.632527,49.991129 282.89328,51.4185484 285.748118,51.4185484 C288.105645,51.4185484 290.205108,50.8325269 292.057258,49.8244624 L292.057258,60.0798387 C289.366398,61.6793011 286.256183,62.6873656 281.968548,62.6873656 C274.145968,62.6873656 268.850269,59.5771505 268.850269,49.1524194" id="Fill-4" fill="#E4DED5"></path>
                    <mask id="mask-2" fill="white">
                        <use xlink:href="#path-1"></use>
                    </mask>
                    <g id="Clip-7"></g>
                    <path d="M302.217742,61.9301075 L315,61.9301075 L315,16.8682796 L302.217742,16.8682796 L302.217742,61.9301075 Z M301.88172,11.905914 L315.336022,11.905914 L315.336022,0.556451613 L301.88172,0.556451613 L301.88172,11.905914 Z" id="Fill-6" fill="#E4DED5" mask="url(#mask-2)"></path>
                    <path d="M360.980645,39.6491935 L360.980645,39.4825269 C360.980645,32.8400538 356.193011,27.0389785 349.125806,27.0389785 C341.813978,27.0389785 337.443011,32.6733871 337.443011,39.313172 L337.443011,39.4825269 C337.443011,46.1223118 342.236022,51.9260753 349.295161,51.9260753 C356.612366,51.9260753 360.980645,46.2943548 360.980645,39.6491935 M324.830108,39.6491935 L324.830108,39.4825269 C324.830108,26.5362903 335.257527,16.0255376 349.295161,16.0255376 C363.252151,16.0255376 373.59086,26.3669355 373.59086,39.313172 L373.59086,39.4825269 C373.59086,52.4260753 363.166129,62.936828 349.125806,62.936828 C335.168817,62.936828 324.830108,52.5981183 324.830108,39.6491935" id="Fill-8" fill="#E4DED5" mask="url(#mask-2)"></path>
                    <path d="M382.827151,16.8680108 L395.604032,16.8680108 L395.604032,23.2551075 C398.547581,19.4701613 402.332527,16.0266129 408.805645,16.0266129 C418.475,16.0266129 424.10672,22.4137097 424.10672,32.7551075 L424.10672,61.9298387 L411.329839,61.9298387 L411.329839,36.7927419 C411.329839,30.7389785 408.469624,27.6287634 403.59328,27.6287634 C398.716935,27.6287634 395.604032,30.7389785 395.604032,36.7927419 L395.604032,61.9298387 L382.827151,61.9298387 L382.827151,16.8680108 Z" id="Fill-9" fill="#E4DED5" mask="url(#mask-2)"></path>
                    <path d="M461.844892,46.0389785 L461.844892,43.7701613 C459.659409,42.7594086 456.799194,42.0873656 453.68629,42.0873656 C448.226613,42.0873656 444.861022,44.2728495 444.861022,48.3104839 L444.861022,48.4798387 C444.861022,51.9260753 447.718548,53.9422043 451.839516,53.9422043 C457.807258,53.9422043 461.844892,50.6626344 461.844892,46.0389785 M432.503495,48.9825269 L432.503495,48.8158602 C432.503495,38.9771505 439.984677,34.4395161 450.662097,34.4395161 C455.199731,34.4395161 458.479301,35.1948925 461.675538,36.2862903 L461.675538,35.530914 C461.675538,30.2325269 458.395968,27.2943548 452.006183,27.2943548 C447.129839,27.2943548 443.680914,28.2163978 439.565323,29.7298387 L436.369086,19.9771505 C441.328763,17.7916667 446.205108,16.3615591 453.855645,16.3615591 C460.836828,16.3615591 465.879839,18.2110215 469.073387,21.4072581 C472.433602,24.7701613 473.949731,29.7298387 473.949731,35.7836022 L473.949731,61.9287634 L461.586828,61.9287634 L461.586828,57.0551075 C458.479301,60.4986559 454.191667,62.7728495 447.968548,62.7728495 C439.479301,62.7728495 432.503495,57.8938172 432.503495,48.9825269" id="Fill-10" fill="#E4DED5" mask="url(#mask-2)"></path>
                    <polygon id="Fill-11" fill="#E4DED5" mask="url(#mask-2)" points="485.540323 61.9301075 498.322581 61.9301075 498.322581 0.556451613 485.540323 0.556451613"></polygon>
                    <polygon id="Fill-12" fill="#E4DED5" mask="url(#mask-2)" points="152.33871 76.0669355 197.147849 76.0669355 197.147849 87.8357527 165.284946 87.8357527 165.284946 100.362634 193.36828 100.362634 193.36828 112.136828 165.284946 112.136828 165.284946 134.919086 152.33871 134.919086"></polygon>
                    <path d="M206.776882,119.027688 L206.776882,89.8556452 L219.553763,89.8556452 L219.553763,114.99543 C219.553763,121.046505 222.41129,124.15672 227.290323,124.15672 C232.166667,124.15672 235.27957,121.046505 235.27957,114.99543 L235.27957,89.8556452 L248.056452,89.8556452 L248.056452,134.917473 L235.27957,134.917473 L235.27957,128.527688 C232.336022,132.309946 228.551075,135.761559 222.075269,135.761559 C212.408602,135.761559 206.776882,129.369086 206.776882,119.027688" id="Fill-13" fill="#E4DED5" mask="url(#mask-2)"></path>
                    <path d="M260.591398,89.8569892 L273.370968,89.8569892 L273.370968,96.2467742 C276.314516,92.4591398 280.099462,89.0155914 286.572581,89.0155914 C296.241935,89.0155914 301.870968,95.4026882 301.870968,105.744086 L301.870968,134.918817 L289.096774,134.918817 L289.096774,109.779032 C289.096774,103.727957 286.236559,100.617742 281.357527,100.617742 C276.483871,100.617742 273.370968,103.727957 273.370968,109.779032 L273.370968,134.918817 L260.591398,134.918817 L260.591398,89.8569892 Z" id="Fill-14" fill="#E4DED5" mask="url(#mask-2)"></path>
                    <path d="M346.799462,112.472581 L346.799462,112.303226 C346.799462,104.819355 341.839785,99.8623656 335.869355,99.8623656 C329.901613,99.8623656 324.855914,104.736022 324.855914,112.303226 L324.855914,112.472581 C324.855914,119.953763 329.901613,124.913441 335.869355,124.913441 C341.839785,124.913441 346.799462,119.953763 346.799462,112.472581 M312.079032,112.472581 L312.079032,112.303226 C312.079032,97.2548387 321.912366,89.0129032 332.595161,89.0129032 C339.404301,89.0129032 343.605914,92.1231183 346.630108,95.7387097 L346.630108,73.5451613 L359.409677,73.5451613 L359.409677,134.918817 L346.630108,134.918817 L346.630108,128.443011 C343.519892,132.647312 339.234946,135.760215 332.595161,135.760215 C322.084409,135.760215 312.079032,127.520968 312.079032,112.472581" id="Fill-15" fill="#E4DED5" mask="url(#mask-2)"></path>
                    <path d="M373.448925,134.919355 L386.231183,134.919355 L386.231183,89.8575269 L373.448925,89.8575269 L373.448925,134.919355 Z M373.112903,84.8924731 L386.567204,84.8924731 L386.567204,73.5430108 L373.112903,73.5430108 L373.112903,84.8924731 Z" id="Fill-16" fill="#E4DED5" mask="url(#mask-2)"></path>
                    <path d="M399.376344,89.8569892 L412.153226,89.8569892 L412.153226,96.2467742 C415.096774,92.4591398 418.88172,89.0155914 425.354839,89.0155914 C435.024194,89.0155914 440.655914,95.4026882 440.655914,105.744086 L440.655914,134.918817 L427.879032,134.918817 L427.879032,109.779032 C427.879032,103.727957 425.018817,100.617742 420.142473,100.617742 C415.266129,100.617742 412.153226,103.727957 412.153226,109.779032 L412.153226,134.918817 L399.376344,134.918817 L399.376344,89.8569892 Z" id="Fill-17" fill="#E4DED5" mask="url(#mask-2)"></path>
                    <path d="M485.809946,110.201882 L485.809946,110.032527 C485.809946,103.892742 481.016935,99.6077957 474.796505,99.6077957 C468.576075,99.6077957 463.866398,103.892742 463.866398,110.032527 L463.866398,110.201882 C463.866398,116.422312 468.576075,120.626613 474.796505,120.626613 C481.016935,120.626613 485.809946,116.338978 485.809946,110.201882 M453.358333,143.828226 L457.729301,134.244892 C462.350269,136.852419 466.976613,138.363172 472.949731,138.363172 C481.688978,138.363172 485.809946,134.161559 485.809946,126.091667 L485.809946,123.906183 C482.025,128.443817 477.909409,131.215323 471.097581,131.215323 C460.586828,131.215323 451.089516,123.570161 451.089516,110.201882 L451.089516,110.032527 C451.089516,96.5836022 460.758871,89.0137097 471.097581,89.0137097 C478.073387,89.0137097 482.194355,91.9572581 485.640591,95.7395161 L485.640591,89.8577957 L498.420161,89.8577957 L498.420161,124.742204 C498.420161,132.817473 496.487366,138.699194 492.705108,142.48414 C488.498118,146.685753 482.025,148.537903 473.285753,148.537903 C465.968548,148.537903 459.073387,146.857796 453.358333,143.828226" id="Fill-18" fill="#E4DED5" mask="url(#mask-2)"></path>
                    <path d="M134.606989,0.309677419 L121.477957,68.9091398 L83.0935484,10.5569892 L97.2145161,78.9575269 L39.4268817,39.7370968 L78.6446237,97.5274194 L10.2467742,83.4064516 L68.5962366,121.785484 L-0.000537634409,134.917204 L134.606989,134.917204 L134.606989,0.309677419 Z M108.832796,70.7612903 L123.023656,92.333871 L123.023656,123.336559 L92.0263441,123.336559 L70.572043,109.223656 L108.776344,109.051613 L108.832796,70.7612903 Z" id="Fill-19" fill="#E4DED5" mask="url(#mask-2)"></path>
                    <polygon id="Fill-20" fill="#E4DED5" mask="url(#mask-2)" points="2.69892473 122.469355 0.370967742 122.469355 0.370967742 120.91828 6.70698925 120.91828 6.70698925 122.469355 4.38172043 122.469355 4.38172043 128.566129 2.69892473 128.566129"></polygon>
                    <polygon id="Fill-21" fill="#E4DED5" mask="url(#mask-2)" points="8.00698925 120.917742 9.82150538 120.917742 11.8295699 124.151613 13.8403226 120.917742 15.6548387 120.917742 15.6548387 128.565591 13.9827957 128.565591 13.9827957 123.56828 11.8295699 126.837097 11.7865591 126.837097 9.65752688 123.603226 9.65752688 128.565591 8.00698925 128.565591"></polygon>
                </g>
            </g>
        </g>
    </g>
</svg>