<?xml version="1.0" encoding="UTF-8"?>
<svg width="515px" height="90px" viewBox="0 0 515 90" version="1.1" xmlns="http://www.w3.org/2000/svg" xmlns:xlink="http://www.w3.org/1999/xlink">
    <title>Logo-NewGradient-PartialColor-RGB</title>
    <g id="portfolio" stroke="none" stroke-width="1" fill="none" fill-rule="evenodd">
        <g id="Lightstream-logo-light" transform="translate(-42.000000, -255.000000)" fill="#E4DED5" fill-rule="nonzero">
            <g id="Logo-NewGradient-PartialColor-RGB" transform="translate(42.000000, 255.000000)">
                <g id="Group">
                    <path d="M34.2511087,16.4441489 C28.6612764,16.4441489 18.6461601,23.2468085 19.5777988,28.8765957 C19.8107085,30.2840426 22.372715,30.987766 22.372715,30.987766 L86.8886966,51.1611702 C86.8886966,51.1611702 48.6915089,26.5308511 36.8131152,17.1478723 C36.3472958,16.6787234 35.4156571,16.4441489 34.2511087,16.4441489 Z" id="Shape"></path>
                    <path d="M91.7797999,0.727659574 C89.2177934,0.727659574 86.8886966,1.43138298 86.8886966,3.07340426 L91.5468902,47.8771277 C91.5468902,47.8771277 96.4379935,14.5675532 98.301271,3.77712766 C98.7670903,1.90053191 95.0405354,0.727659574 91.7797999,0.727659574 Z" id="Shape"></path>
                    <path d="M73.8457545,0.727659574 C70.5850189,0.727659574 66.858464,1.90053191 66.6255544,3.77712766 C66.3926447,4.95 68.4888318,8.93776596 69.4204705,10.5797872 C78.0381287,26.2962766 89.6836128,47.8771277 89.6836128,47.8771277 C89.6836128,47.8771277 81.5317739,12.456383 78.9697674,3.07340426 C78.7368578,1.43138298 76.407761,0.727659574 73.8457545,0.727659574 Z" id="Shape"></path>
                    <path d="M15.1525149,36.3829787 C14.6866955,36.3829787 14.2208761,36.1484043 13.7550568,36.1484043 C7.69940508,36.1484043 -1.38407247,43.4202128 1.17793402,51.8648936 C1.64375338,53.2723404 3.04121147,53.2723404 3.04121147,53.2723404 L81.2988643,53.2723404 L81.2988643,53.2723404 L81.2988643,53.2723404 L81.5317739,53.2723404 L81.5317739,53.2723404 L85.7241482,53.2723404 C85.7241482,53.2723404 32.8536506,40.3707447 15.1525149,36.3829787 Z" id="Shape"></path>
                    <path d="M53.1167929,5.6537234 C47.9927799,5.6537234 41.0054895,10.3452128 43.1016766,13.6292553 C45.1978637,16.6787234 87.8203353,49.5191489 87.8203353,49.5191489 C87.8203353,49.5191489 65.6939156,17.3824468 57.0762574,7.29574468 C56.3775284,6.12287234 54.7471606,5.6537234 53.1167929,5.6537234 Z" id="Shape"></path>
                </g>
                <g id="Group" transform="translate(93.000000, 1.000000)">
                    <g transform="translate(25.716481, 66.619433)" id="Shape">
                        <path d="M12.1728074,1.88562753 L14.9782417,1.88562753 L18.4850346,21.0576923 L15.9133865,21.0576923 L14.9782417,15.2125506 L6.79572502,15.2125506 L3.52271835,21.0576923 L0.717284062,21.0576923 L12.1728074,1.88562753 Z M8.19844217,13.1082996 L14.7444555,13.1082996 L13.3417384,3.98987854 L13.3417384,3.98987854 L8.19844217,13.1082996 Z"></path>
                        <path d="M32.0446336,1.88562753 L38.8244332,1.88562753 C43.500157,1.88562753 46.0718051,4.69129555 46.0718051,9.13360324 C46.0718051,16.3815789 41.6298675,21.0576923 35.3176403,21.0576923 L27.8364822,21.0576923 L32.0446336,1.88562753 Z M31.1094889,18.9534413 L35.5514265,18.9534413 C40.9285089,18.9534413 43.7339432,14.2773279 43.7339432,9.60121457 C43.7339432,6.79554656 42.7987984,4.22368421 38.3568608,4.22368421 L34.3824955,4.22368421 L31.1094889,18.9534413 Z"></path>
                        <polygon points="50.2799565 5.86032389 53.0853908 5.86032389 49.8123841 21.0576923 47.240736 21.0576923"></polygon>
                        <polygon points="55.8908251 5.86032389 58.6962594 5.86032389 60.0989765 18.0182186 60.0989765 18.0182186 66.4112037 5.86032389 69.216638 5.86032389 61.0341213 21.0576923 57.9949008 21.0576923"></polygon>
                        <polygon points="72.2558585 5.86032389 74.8275066 5.86032389 71.7882861 21.0576923 68.9828518 21.0576923"></polygon>
                        <path d="M79.2694442,16.1477733 C79.2694442,18.48583 80.4383751,19.4210526 82.7762371,19.4210526 C84.1789542,19.4210526 86.0492437,18.7196356 86.0492437,17.082996 C86.0492437,15.4463563 84.1789542,14.9787449 82.3086647,14.5111336 C80.9059475,14.0435223 78.1005132,13.5759109 78.1005132,10.5364372 C78.1005132,7.73076923 80.204589,5.86032389 83.7113818,5.86032389 C86.9843885,5.86032389 89.5560366,7.02935223 89.3222504,10.7702429 L86.7506023,10.7702429 C86.7506023,8.89979757 85.8154575,8.19838057 83.7113818,8.19838057 C83.0100232,8.19838057 80.6721613,8.43218623 80.6721613,10.5364372 C80.6721613,11.9392713 82.0748785,12.4068826 83.945168,12.8744939 C86.0492437,13.3421053 88.6208918,14.0435223 88.6208918,17.082996 C88.6208918,19.4210526 86.9843885,21.992915 82.3086647,21.992915 C78.8018718,21.992915 76.4640099,20.3562753 76.4640099,16.6153846 L79.2694442,16.6153846 L79.2694442,16.1477733 Z"></path>
                        <polygon points="94.2317604 5.86032389 96.8034085 5.86032389 93.5304018 21.0576923 90.9587537 21.0576923"></polygon>
                        <path d="M106.622429,5.62651822 C110.596794,5.62651822 113.168442,8.43218623 113.168442,12.1730769 C113.168442,18.48583 109.194077,21.5253036 105.219711,21.5253036 C100.777774,21.5253036 98.4399118,18.7196356 98.4399118,14.9787449 C98.4399118,8.43218623 102.648063,5.62651822 106.622429,5.62651822 M105.453498,19.4210526 C108.96029,19.4210526 110.83058,15.6801619 110.83058,12.4068826 C110.83058,9.60121457 109.427863,7.9645749 106.856215,7.9645749 C103.349422,7.9645749 101.479132,11.7054656 101.479132,14.9787449 C101.245346,17.5506073 102.648063,19.4210526 105.453498,19.4210526"></path>
                        <polygon points="117.376593 5.86032389 120.415814 5.86032389 124.857751 17.3168016 125.091538 17.3168016 127.4294 5.86032389 130.001048 5.86032389 126.728041 21.0576923 123.922607 21.0576923 119.246883 9.83502024 119.246883 9.83502024 116.909021 21.0576923 114.337373 21.0576923"></polygon>
                        <path d="M148.703943,5.62651822 C152.678308,5.62651822 155.249956,8.43218623 155.249956,12.1730769 C155.249956,18.48583 151.275591,21.5253036 147.301226,21.5253036 C142.859288,21.5253036 140.521426,18.7196356 140.521426,14.9787449 C140.521426,8.43218623 144.729578,5.62651822 148.703943,5.62651822 M147.301226,19.4210526 C150.808019,19.4210526 152.678308,15.6801619 152.678308,12.4068826 C152.678308,9.60121457 151.275591,7.9645749 148.703943,7.9645749 C145.19715,7.9645749 143.32686,11.7054656 143.32686,14.9787449 C143.32686,17.5506073 144.729578,19.4210526 147.301226,19.4210526"></path>
                        <polygon points="159.458108 5.86032389 169.7447 5.86032389 169.277128 8.19838057 161.562183 8.19838057 160.860825 12.1730769 167.406838 12.1730769 166.939266 14.2773279 160.393252 14.2773279 158.990535 21.0576923 156.418887 21.0576923"></polygon>
                        <path d="M191.954388,7.02935223 C191.954388,3.75607287 190.084099,2.8208502 187.278664,2.8208502 C185.408375,2.8208502 182.602941,3.75607287 182.602941,6.09412955 C182.602941,7.9645749 184.005658,8.89979757 185.875947,9.36740891 L188.681382,10.0688259 C191.25303,10.7702429 193.590892,11.9392713 193.590892,15.4463563 C193.590892,19.6548583 189.38274,21.5253036 185.875947,21.5253036 C180.966437,21.5253036 177.693431,19.4210526 177.927217,14.5111336 L180.498865,14.5111336 C180.265079,18.0182186 182.602941,19.187247 185.875947,19.187247 C188.447595,19.187247 190.785457,18.0182186 190.785457,15.4463563 C190.785457,13.3421053 189.148954,12.6406883 187.278664,12.1730769 L184.47323,11.4716599 C182.135368,10.7702429 180.031292,9.36740891 180.031292,6.32793522 C180.031292,2.35323887 183.771872,0.482793522 187.278664,0.482793522 C191.25303,0.482793522 194.759822,2.35323887 194.526036,6.79554656 L191.954388,6.79554656 L191.954388,7.02935223 Z"></path>
                        <path d="M198.734188,5.86032389 L201.305836,5.86032389 L199.435546,15.2125506 C199.435546,15.6801619 199.20176,15.9139676 199.20176,16.3815789 C199.20176,18.48583 200.604477,19.187247 202.474767,19.187247 C204.578842,19.187247 205.98156,18.48583 206.682918,15.2125506 L208.786994,5.86032389 L211.358642,5.86032389 L209.254566,15.4463563 C208.786994,18.0182186 207.618063,21.5253036 202.240981,21.5253036 C199.20176,21.5253036 196.630112,20.1224696 196.630112,16.8491903 C196.630112,16.1477733 196.630112,15.4463563 196.863898,14.7449393 L198.734188,5.86032389 Z"></path>
                        <polygon points="214.865435 5.86032389 217.904655 5.86032389 222.580379 17.3168016 222.580379 17.3168016 224.918241 5.86032389 227.489889 5.86032389 224.450669 21.0576923 221.411448 21.0576923 216.735724 9.83502024 216.735724 9.83502024 214.397863 21.0576923 211.826214 21.0576923"></polygon>
                        <polygon points="244.322495 3.28846154 237.542695 3.28846154 233.802116 21.0576923 230.996682 21.0576923 234.971047 3.28846154 228.191248 3.28846154 228.65882 1.18421053 244.790067 1.18421053"></polygon>
                        <path d="M243.621136,5.86032389 L250.16715,5.86032389 C251.569867,5.86032389 254.842874,6.09412955 254.842874,9.83502024 C254.842874,12.1730769 253.440156,13.5759109 251.336081,14.0435223 L251.336081,14.0435223 C252.505012,14.5111336 252.972584,15.4463563 252.972584,16.8491903 C252.972584,17.784413 252.738798,18.9534413 252.738798,19.888664 C252.738798,20.3562753 252.738798,20.8238866 252.972584,21.0576923 L250.16715,21.0576923 C249.933364,20.590081 249.933364,20.3562753 249.933364,19.888664 C249.933364,18.7196356 250.16715,17.784413 250.16715,16.6153846 C250.16715,14.7449393 248.764433,14.7449393 247.361715,14.7449393 L244.088709,14.7449393 L242.685992,21.0576923 L239.880557,21.0576923 L243.621136,5.86032389 Z M245.023854,12.8744939 L248.998219,12.8744939 C251.336081,12.8744939 252.505012,11.9392713 252.505012,10.0688259 C252.505012,8.43218623 251.102294,8.19838057 249.699577,8.19838057 L245.958998,8.19838057 L245.023854,12.8744939 Z"></path>
                        <path d="M258.583453,5.86032389 L261.155101,5.86032389 L259.284811,15.2125506 C259.284811,15.6801619 259.051025,15.9139676 259.051025,16.3815789 C259.051025,18.48583 260.453742,19.187247 262.324032,19.187247 C264.428107,19.187247 265.830825,18.48583 266.532183,15.2125506 L268.636259,5.86032389 L271.207907,5.86032389 L269.103831,15.4463563 C268.636259,18.0182186 267.467328,21.5253036 262.090245,21.5253036 C259.051025,21.5253036 256.479377,20.1224696 256.479377,16.8491903 C256.479377,16.1477733 256.479377,15.4463563 256.713163,14.7449393 L258.583453,5.86032389 Z"></path>
                        <path d="M274.7147,16.1477733 C274.7147,18.48583 275.883631,19.4210526 278.221493,19.4210526 C279.62421,19.4210526 281.494499,18.7196356 281.494499,17.082996 C281.494499,15.4463563 279.62421,14.9787449 277.75392,14.5111336 C276.351203,14.0435223 273.545769,13.5759109 273.545769,10.5364372 C273.545769,7.73076923 275.649845,5.86032389 279.156637,5.86032389 C282.429644,5.86032389 285.001292,7.02935223 284.767506,10.7702429 L282.195858,10.7702429 C282.195858,8.89979757 281.260713,8.19838057 279.156637,8.19838057 C278.455279,8.19838057 276.117417,8.43218623 276.117417,10.5364372 C276.117417,11.9392713 277.520134,12.4068826 279.390424,12.8744939 C281.494499,13.3421053 284.066147,14.0435223 284.066147,17.082996 C284.066147,19.4210526 282.429644,21.992915 277.75392,21.992915 C274.247127,21.992915 271.909265,20.3562753 271.909265,16.6153846 L274.7147,16.6153846 L274.7147,16.1477733 Z"></path>
                        <polygon points="287.57294 5.86032389 299.963608 5.86032389 299.496036 8.19838057 294.586526 8.19838057 292.014878 21.0576923 289.44323 21.0576923 292.014878 8.19838057 287.105368 8.19838057"></polygon>
                        <path d="M311.185346,1.18421053 L319.134076,1.18421053 C323.108441,1.18421053 324.744945,3.05465587 324.744945,6.09412955 C324.744945,8.19838057 323.342227,10.5364372 321.004366,11.0040486 L321.004366,11.0040486 C322.874655,11.4716599 324.043586,13.1082996 324.043586,15.2125506 C324.043586,18.9534413 321.004366,21.291498 317.03,21.291498 L307.21098,21.291498 L311.185346,1.18421053 Z M310.016415,18.9534413 L316.562428,18.9534413 C317.965145,18.9534413 321.471938,18.7196356 321.471938,14.9787449 C321.471938,12.4068826 319.601648,11.9392713 317.263786,11.9392713 L311.652918,11.9392713 L310.016415,18.9534413 Z M311.886704,9.83502024 L317.731359,9.83502024 C320.536793,9.83502024 321.93951,8.43218623 321.93951,6.09412955 C321.93951,3.75607287 319.601648,3.52226721 317.965145,3.52226721 L313.055635,3.52226721 L311.886704,9.83502024 Z"></path>
                        <path d="M333.395034,5.86032389 L336.200468,5.86032389 L338.772116,21.0576923 L335.966682,21.0576923 L335.265323,17.082996 L329.186882,17.082996 L326.84902,21.0576923 L324.043586,21.0576923 L333.395034,5.86032389 Z M334.330178,8.6659919 L334.330178,8.6659919 L330.589599,15.2125506 L335.265323,15.2125506 L334.330178,8.6659919 Z"></path>
                        <polygon points="343.44784 5.86032389 346.48706 5.86032389 351.162784 17.3168016 351.162784 17.3168016 353.500646 5.86032389 356.072294 5.86032389 353.033074 21.0576923 349.993853 21.0576923 345.318129 9.83502024 345.318129 9.83502024 342.980267 21.0576923 340.408619 21.0576923"></polygon>
                        <polygon points="360.748018 5.86032389 363.319666 5.86032389 361.916949 12.8744939 361.916949 12.8744939 369.865679 5.86032389 373.372472 5.86032389 366.1251 12.1730769 370.800824 21.0576923 367.761604 21.0576923 364.021025 13.8097166 361.21559 16.1477733 360.280446 21.0576923 357.708798 21.0576923"></polygon>
                    </g>
                    <g id="Shape">
                        <polygon points="19.8877517 1.63663968 11.0038765 1.63663968 0.249711681 53.541498 35.3176403 53.541498 36.9541436 45.5921053 10.7700903 45.5921053"></polygon>
                        <polygon points="47.0069499 12.1578947 38.590647 53.541498 47.240736 53.541498 55.8908251 12.1578947"></polygon>
                        <path d="M74.8275066,30.8623482 L73.4247894,37.8765182 L84.1789542,37.8765182 C83.0100232,42.3188259 79.9708028,46.9949393 73.4247894,46.9949393 C67.1125623,46.9949393 63.3719832,43.0202429 63.3719832,36.0060729 C63.3719832,27.3552632 67.8139208,18.7044534 76.4640099,18.7044534 C80.4383751,18.7044534 85.114099,19.8734818 85.3478852,25.7186235 L85.3478852,26.6538462 L93.9979742,26.6538462 L93.9979742,25.7186235 C93.9979742,16.6002024 87.4519609,11.2226721 76.6977961,11.2226721 C66.1774175,11.2226721 54.7218942,18.9382591 54.7218942,36.2398785 C54.7218942,47.2287449 61.9692661,54.4767206 73.1910032,54.4767206 C75.9964375,54.4767206 79.7370166,53.541498 83.0100232,50.73583 L83.0100232,53.541498 L89.0884642,53.541498 L93.9979742,31.0961538 L74.8275066,31.0961538 L74.8275066,30.8623482 Z"></path>
                        <polygon points="123.455034 27.8228745 106.622429 27.8228745 109.895435 12.1578947 101.245346 12.1578947 92.5952571 53.541498 101.479132 53.541498 105.219711 35.7722672 121.818531 35.7722672 118.077952 53.541498 126.728041 53.541498 135.37813 12.1578947 126.728041 12.1578947"></polygon>
                        <polygon points="172.082562 12.1578947 137.715992 12.1578947 136.079489 19.8734818 149.171515 19.8734818 142.15793 53.541498 150.808019 53.541498 157.821604 19.8734818 170.212272 19.8734818"></polygon>
                        <path d="M192.889533,0.467611336 C180.732651,0.467611336 173.719065,7.24797571 173.719065,16.6002024 C173.719065,26.4200405 183.304299,28.7580972 187.746237,29.9271255 C194.058464,31.5637652 200.136905,33.2004049 200.136905,39.0455466 C200.136905,45.1244939 193.590892,47.2287449 188.681382,47.2287449 C181.200223,47.2287449 176.5245,44.4230769 176.758286,36.2398785 L168.108197,36.2398785 C167.640624,49.0991903 175.589355,54.4767206 187.746237,54.4767206 C203.409912,54.4767206 209.254566,45.8259109 209.254566,37.6427126 C209.254566,26.8876518 200.838263,24.7834008 193.590892,22.9129555 C187.980023,21.5101215 182.836727,20.3410931 182.836727,15.1973684 C182.836727,8.41700405 190.551671,7.48178138 192.889533,7.48178138 C199.903119,7.48178138 203.409912,10.0536437 203.409912,16.6002024 L212.060001,16.6002024 C212.527573,4.90991903 203.643698,0.467611336 192.889533,0.467611336"></path>
                        <polygon points="248.998219 12.1578947 214.865435 12.1578947 213.228932 19.8734818 226.087172 19.8734818 219.307373 53.541498 227.957462 53.541498 234.971047 19.8734818 247.361715 19.8734818"></polygon>
                        <path d="M282.66343,23.1467611 C282.66343,16.1325911 277.987706,12.1578947 269.337617,12.1578947 L251.336081,12.1578947 L242.685992,53.3076923 L251.569867,53.3076923 L254.842874,37.1751012 L262.324032,37.1751012 C266.532183,37.1751012 268.870045,37.4089069 268.870045,40.9159919 C268.870045,42.3188259 268.636259,43.7216599 268.636259,45.1244939 C268.402473,46.5273279 268.402473,48.1639676 268.402473,49.5668016 C268.402473,50.73583 268.636259,51.9048583 268.870045,52.840081 L269.103831,53.541498 L278.455279,53.541498 L277.520134,52.138664 C277.052562,51.2034413 276.818775,50.2682186 276.818775,49.332996 C276.818775,47.9301619 277.052562,46.5273279 277.052562,45.1244939 C277.286348,43.7216599 277.286348,42.5526316 277.286348,41.1497976 C277.286348,39.0455466 277.052562,36.0060729 274.480914,34.3694332 C279.857996,32.4989879 282.66343,28.7580972 282.66343,23.1467611 L282.66343,23.1467611 Z M258.817239,19.6396761 L267.701114,19.6396761 C272.143052,19.6396761 273.779555,20.8087045 273.779555,23.8481781 C273.779555,29.2257085 268.636259,30.1609312 265.597038,30.1609312 L256.479377,30.1609312 L258.817239,19.6396761 Z"></path>
                        <polygon points="293.183809 36.0060729 313.523207 36.0060729 315.159711 28.5242915 294.820312 28.5242915 296.456816 19.8734818 318.432717 19.8734818 320.069221 12.1578947 289.44323 12.1578947 281.026927 53.541498 311.652918 53.541498 313.289421 45.5921053 291.079733 45.5921053"></polygon>
                        <path d="M338.070757,12.1578947 L313.289421,53.3076923 L322.874655,53.3076923 L328.953096,42.7864372 L343.44784,42.7864372 L345.084343,53.3076923 L353.968218,53.3076923 L346.720847,12.1578947 L338.070757,12.1578947 Z M342.278909,36.0060729 L332.693675,36.0060729 L340.174833,22.6791498 L342.278909,36.0060729 Z"></path>
                        <polygon points="394.880802 12.1578947 378.749555 40.6821862 374.775189 12.1578947 363.787238 12.1578947 355.137149 53.541498 363.553452 53.541498 368.930535 25.9524291 373.138686 53.541498 379.918486 53.541498 395.348374 26.1862348 389.503719 53.541498 397.920022 53.541498 406.336325 12.1578947"></polygon>
                        <path d="M415.687773,12.1578947 C418.96078,12.1578947 421.532428,14.7297571 421.532428,18.0030364 C421.532428,21.2763158 418.96078,23.8481781 415.687773,23.8481781 C412.414766,23.8481781 409.843118,21.2763158 409.843118,18.0030364 C410.076904,14.7297571 412.648552,12.1578947 415.687773,12.1578947 Z M420.597283,18.0030364 C420.597283,15.4311741 418.493207,13.0931174 415.921559,13.0931174 C413.349911,13.0931174 411.245835,15.1973684 411.245835,18.0030364 C411.245835,20.5748988 413.349911,22.9129555 415.921559,22.9129555 C418.493207,22.9129555 420.597283,20.5748988 420.597283,18.0030364 Z M413.583697,14.7297571 L416.155345,14.7297571 C417.558062,14.7297571 418.493207,15.4311741 418.493207,16.6002024 C418.493207,17.7692308 417.791849,18.4706478 416.622918,18.4706478 L418.493207,21.2763158 L417.558062,21.2763158 L415.687773,18.4706478 L414.518842,18.4706478 L414.518842,21.2763158 L413.583697,21.2763158 L413.583697,14.7297571 L413.583697,14.7297571 Z M415.687773,17.5354251 C416.622918,17.5354251 417.558062,17.5354251 417.558062,16.3663968 C417.558062,15.4311741 416.856704,15.4311741 416.155345,15.4311741 L414.752628,15.4311741 L414.752628,17.5354251 L415.687773,17.5354251 Z"></path>
                    </g>
                </g>
            </g>
        </g>
    </g>
</svg>