<?xml version="1.0" encoding="UTF-8"?>
<svg version="1.1" viewBox="0 0 24 24" xmlns="http://www.w3.org/2000/svg" xmlns:xlink="http://www.w3.org/1999/xlink">
    <!--Generated by IJSVG (https://github.com/iconjar/IJSVG)-->
    <path d="M6.527,21.5h-5v-13h5v13Zm-2.509,-15h-0.03c-1.511,0 -2.488,-1.182 -2.488,-2.481c0,-1.329 1.008,-2.412 2.547,-2.412c1.541,0 2.488,1.118 2.519,2.447c-0.001,1.299 -0.978,2.446 -2.548,2.446Zm11.509,6c-1.105,0 -2,0.896 -2,2v7h-5c0,0 0.059,-12 0,-13h5v1.485c0,0 1.548,-1.443 3.938,-1.443c2.962,0 5.062,2.144 5.062,6.304v6.654h-5v-7c0,-1.104 -0.895,-2 -2,-2Z" fill="#FFF"></path>
    <path fill="none" d="M0,0h24v24h-24Z"></path>
</svg>