<svg height="839" viewBox="0 0 982 839" width="982" xmlns="http://www.w3.org/2000/svg"><g fill="none" fill-rule="evenodd"><g fill="#fff" transform="translate(0 529)"><path d="m68.2424551 82.6139263-2.541 6.428c-8.909-4.773-20.656-6.521-30.38-5.67-17.99 1.574-29.00600003 10.05-27.97100003 21.8799997 3.02000003 34.52 68.06900003 10.866 71.40400003 52.707 1.531 17.503-13.197 30.222-36.858 32.293-15.072 1.318-31.05-3.98-41.78700003-12.839l3.041-6.308c10.07500003 8.754 25.00800003 13.325 38.29800003 12.162 19.448-1.701 31.19-11.219 30.027-24.509-2.781-35.52-67.80200003-11.541-71.37500003-52.381-1.432-16.3679997 12.55600003-28.2079997 34.92100003-30.1639997 11.507-1.007 24.312 1.629 33.221 6.401"/><path d="m145.709 75.106-24.168 69.069 60.288-5.274zm-26.49 76.131-11.764 33.527-7.455.653 41.463-117.779 7.293-.638 61.772 108.747-7.455.652-17.57-30.961z"/><path d="m322.24 165.979-84.525-96.305 9.004 102.912-6.808.596-9.911-113.284 7.942-.694 84.688 96.29-9.004-102.912 6.645-.582 9.911 113.284z"/><path d="m438.137 149.221974 38.247-3.347c28.361-2.48 49.27-26.682 46.845-54.3950001-2.439-27.876-27.232-48.079-55.756-45.584l-38.085 3.332zm28.917-109.9850001c32.251-2.822 60.365 19.868 63.144 51.632 2.751 31.4410001-20.981 58.8300001-53.395 61.6660001l-44.892 3.927-9.911-113.2830001z"/><path d="m570.911 143.879-9.911-113.283 6.807-.596 9.911 113.283z"/><path d="m621.389 32.444 3.956 45.216 58.991-5.161.595 6.807-58.99 5.161 4.197 47.971 68.391-5.983.581 6.644-75.199 6.579-9.911-113.284 73.092-6.394.581 6.645z"/><path d="m819.010125 66.601927 3.587 41.003c-9.74 9.997-23.83 16.945-38.902 18.265-32.251 2.821-60.731-20.327-63.482-51.768-2.751-31.44 21.454-59.032 53.867-61.868 15.234-1.333 29.83 3.105 41.173 11.421l-3.613 5.378c-10.137-7.605-23.38-11.508-36.993-10.318-28.686 2.51-50.052 27.078-47.627 54.791 2.439 27.876 27.746 48.361 56.432 45.851 12.479-1.092 24.089-6.516 32.689-14.617l-3.29-37.599z"/><path d="m858.1834 61.4805827c2.424 27.715 27.732 48.1990003 56.094 45.7180003 28.361-2.481 49.728-27.0490003 47.303-54.7640003-2.425-27.713-27.719-48.03499998-56.08-45.55399998-28.361 2.482-49.742 26.88799998-47.317 54.59999998m110.366-9.655c2.751 31.441-21.278 59.1820003-53.69 62.0180003-32.414 2.836-60.895-20.3110003-63.645-51.7530003-2.751-31.44 21.292-59.01799998 53.705-61.85399998s60.879 20.14799998 63.63 51.58899998"/><path d="m30.304 292.425941 7.618-.667c7.355-.644 11.576-6.834 10.787-15.854-.796-9.106-6.483-14.608-14.363-13.918l-6.654.582zm3.101-46.238c20.226-1.77 34.409 9.076 36.041 27.726 1.631 18.65-10.708 31.906-31.46 33.721l-26.617 2.329-5.369-61.378z"/><path d="m82.37 303.155-5.37-61.378 20.313-1.777 5.37 61.378z"/><path d="m170.134326 263.59208 2.214 25.306c-6.431 5.149-17.435 9.465-26.192 10.232-19.261 1.685-34.436-10.398-36.029-28.611-1.586-18.124 11.793-32.617 31.844-34.372 9.544-.835 20.284 1.931 27.357 7.135l-10.252 14.926c-4.46-3.58-10.636-5.598-15.714-5.154-7.881.689-13.124 7.324-12.396 15.642.743 8.494 7.146 14.11 15.114 13.413 2.102-.185 5.009-1.234 7.878-2.719l-1.248-14.274z"/><path d="m185.37 294.155-5.37-61.378 20.313-1.777 5.37 61.379z"/><path d="m248.14 243.555 3.968 45.355-20.315 1.778-3.968-45.356-17.423 1.525-1.402-16.023 55.249-4.834 1.402 16.023z"/><path d="m299.124 243.19-4.908 18.516 12.783-1.119zm-8.89 33.512-2.394 8.943-20.84 1.823 20.549-63.645 20.838-1.823 30.324 59.195-21.626 1.891-3.824-8.399z"/><path d="m390.771 259.243 1.479 16.898-45.88 4.015-5.37-61.379 20.313-1.777 3.891 44.479z"/><path d="m443.304 256.424941 7.618-.666c7.355-.644 11.577-6.835 10.787-15.855-.796-9.105-6.483-14.608-14.363-13.918l-6.654.582zm3.101-46.237c20.226-1.77 34.409 9.076 36.041 27.726 1.631 18.65-10.708 31.906-31.46 33.721l-26.617 2.329-5.369-61.379z"/><path d="m511.662 220.176.659 7.53 28.718-2.512 1.348 15.409-28.718 2.512.666 7.618 32.396-2.834 1.348 15.411-52.709 4.611-5.37-61.379 51.922-4.542 1.348 15.41z"/><path d="m608.993 202.124237-6.006 16.055c-6.516-2.871-16.39-5.801-21.731-5.334-2.275.199-3.703 1.03-3.542 2.869.674 7.705 32.036.108 33.982 22.348 1.195 13.66-10.271 20.75-24.106 21.96-10.682.935-22.905-1.613-31.59-7.118l6.197-15.893c6.763 4.701 17.995 8.043 24.212 7.499 2.977-.261 4.818-1.394 4.627-3.581-.697-7.968-32.021.065-33.905-21.473-1.073-12.259 8.586-20.868 24.521-22.263 9.719-.85 20.041 1.16 27.341 4.931"/><path d="m622.37 256.155-5.37-61.378 20.313-1.777 5.37 61.379z"/><path d="m710.134326 215.592119 2.214 25.305c-6.431 5.149-17.435 9.466-26.192 10.232-19.261 1.686-34.436-10.398-36.029-28.611-1.586-18.124 11.793-32.617 31.844-34.371 9.544-.835 20.285 1.93 27.358 7.134l-10.253 14.926c-4.46-3.58-10.636-5.598-15.714-5.154-7.881.689-13.124 7.324-12.396 15.642.743 8.494 7.146 14.11 15.114 13.413 2.102-.184 5.009-1.233 7.878-2.719l-1.248-14.273z"/><path d="m768.01 243.864-26.908-29.231 2.742 31.345-18.475 1.616-5.369-61.377 16.986-1.487 27.011 29.399-2.758-31.521 18.388-1.608 5.37 61.378z"/><path d="m813.662 193.177.659 7.53 28.718-2.512 1.348 15.409-28.718 2.512.666 7.618 32.396-2.834 1.348 15.41-52.709 4.611-5.37-61.378 51.922-4.543 1.348 15.411z"/><path d="m889.31 201.218937c4.377-.383 6.679-3.32 6.265-8.048-.398-4.554-3.167-6.957-7.544-6.574l-9.369.819 1.279 14.622zm-.403 15.563-7.618.667 1.395 15.935-20.314 1.777-5.37-61.378 29.682-2.597c16.636-1.455 26.878 5.678 28.103 19.686.781 8.931-2.051 15.885-8.018 20.289l13.828 18.907-22.939 2.006z"/><path d="m978.994 170.123908-6.006 16.055c-6.518-2.871-16.39-5.801-21.731-5.334-2.276.199-3.704 1.031-3.543 2.869.674 7.706 32.037.108 33.983 22.348 1.194 13.66-10.273 20.75-24.106 21.961-10.682.935-22.905-1.613-31.591-7.118l6.197-15.894c6.763 4.702 17.995 8.043 24.213 7.499 2.977-.261 4.817-1.393 4.626-3.581-.697-7.968-32.021.066-33.905-21.473-1.073-12.259 8.586-20.868 24.521-22.263 9.718-.849 20.042 1.16 27.342 4.931"/></g><g transform="translate(221)"><path d="m359.146325 451.331173-201.492 17.628c-66.3549997 5.806-125.0649997-43.457-130.8699997-109.813l-17.628-201.492c-5.805-66.3550002 43.457-125.0640002 109.8119997-130.8690002l201.492-17.62899998c66.355-5.804 125.065 43.45799998 130.87 109.81300018l17.629 201.492c5.805 66.355-43.458 125.064-109.813 130.87m118.471-131.628-17.629-201.492c-6.223-71.1310002-69.154-123.93600018-140.285-117.71300018l-201.492 17.62899998c-71.1319997 6.223-123.9369997 69.153-117.7129997 140.2850002l17.628 201.492c6.223 71.131 69.154 123.936 140.2849997 117.713l201.492-17.629c71.132-6.222 123.937-69.153 117.714-140.285" fill="#fff" fill-rule="nonzero"/><path d="m361.7439 438.1022-97.719 8.55-17.692-202.217 201.613-17.639 8.603 98.325c5.02 57.377-37.427 107.961-94.805 112.981zm-207.783 18.179c-57.378 5.02-107.962-37.424-112.982-94.803l-8.602-98.324 201.612-17.639 17.691 202.217zm-131.15-302.449c-5.02-57.378 37.425-107.961 94.803-112.981l97.721-8.55 17.691 202.214-201.613 17.64zm302.576-131.299c57.378-5.02 107.963 37.424 112.983 94.802l8.602 98.325-201.613 17.638-17.692-202.216z" fill="#da0f54"/><g fill="#fff"><path d="m179.9216 376.8776c-8.95 9.436-20.258 14.751-33.932 15.948l-25.662 2.245c-2.53.221-4.767-.389-6.717-1.832-1.887-1.446-2.927-3.29-3.124-5.53l-6.256-71.519c-.197-2.241.508-4.235 2.115-5.99 1.674-1.703 3.774-2.667 6.304-2.887l25.662-2.247c13.674-1.195 25.734 2.077 36.186 9.813 10.45 7.738 16.202 17.635 17.257 29.687 1.054 12.052-2.89 22.823-11.833 32.312m4.164-72.108c-13.57-10.045-29.204-14.293-46.915-12.744l-25.662 2.246c-6.506.569-11.929 3.113-16.267 7.628l-.085.091c-4.274 4.564-6.159 9.727-5.655 15.487l6.257 71.519c.504 5.76 3.257 10.517 8.259 14.272l.099.072c5.057 3.696 10.838 5.258 17.345 4.688l25.662-2.245c17.71-1.55 32.372-8.421 43.996-20.615 11.553-12.242 16.645-26.204 15.273-41.884-1.372-15.679-8.808-28.517-22.307-38.515"/><path d="m165.9041 366.4958c-5.67 5.978-12.783 9.34-21.335 10.089l-16.446 1.438-4.836-55.278 16.446-1.438c8.551-.749 16.138 1.302 22.755 6.149 6.618 4.903 10.261 11.142 10.923 18.715.663 7.573-1.841 14.348-7.507 20.325m6.168-49.147c-9.67-7.162-20.83-10.19-33.48-9.083l-25.663 2.246c-1.506.13-2.759.724-3.758 1.779-1.002 1.057-1.443 2.25-1.327 3.582l6.258 71.519c.116 1.334.758 2.433 1.927 3.297 1.168.868 2.505 1.233 4.012 1.1l25.661-2.244c12.651-1.108 23.115-6.026 31.395-14.757 8.283-8.732 11.932-18.698 10.953-29.897-.976-11.147-6.3-20.329-15.978-27.542"/><path d="m326.6174 102.4968c8.552-.748 16.139 1.303 22.756 6.151 6.617 4.903 10.26 11.142 10.923 18.713.662 7.574-1.842 14.35-7.508 20.326-5.67 5.977-12.783 9.342-21.335 10.09l-16.445 1.439-4.837-55.281zm-23.703 69.384c1.167.867 2.505 1.232 4.011 1.101l25.662-2.246c12.649-1.106 23.115-6.023 31.395-14.758 8.283-8.73 11.932-18.697 10.952-29.897-.975-11.146-6.299-20.327-15.978-27.542-9.67-7.161-20.831-10.188-33.48-9.082l-25.662 2.245c-1.506.132-2.76.725-3.759 1.78-1.002 1.056-1.442 2.249-1.326 3.581l6.257 71.522c.117 1.332.758 2.431 1.928 3.296z"/><path d="m372.5994 348.4128c-5.668 5.977-12.782 9.34-21.334 10.088l-16.445 1.438-4.837-55.277 16.446-1.439c8.552-.748 16.139 1.302 22.754 6.15 6.619 4.903 10.262 11.141 10.925 18.714.662 7.573-1.842 14.348-7.509 20.326m6.169-49.148c-9.67-7.162-20.831-10.189-33.48-9.082l-25.662 2.245c-1.506.131-2.76.724-3.759 1.78-1.002 1.056-1.443 2.249-1.326 3.581l6.257 71.52c.117 1.333.758 2.432 1.928 3.296 1.167.868 2.504 1.233 4.011 1.101l25.662-2.245c12.649-1.108 23.115-6.025 31.394-14.757 8.284-8.732 11.932-18.698 10.953-29.897-.975-11.147-6.3-20.329-15.978-27.542"/><path d="m293.2312 91.3903c1.672-1.703 3.773-2.666 6.303-2.888l25.662-2.245c13.675-1.196 25.734 2.075 36.186 9.812 10.451 7.739 16.203 17.635 17.257 29.687 1.054 12.054-2.889 22.824-11.833 32.312-8.949 9.437-20.257 14.752-33.931 15.948l-25.663 2.245c-2.529.221-4.769-.389-6.716-1.832-1.888-1.446-2.928-3.29-3.124-5.529l-6.257-71.521c-.196-2.238.508-4.234 2.116-5.989zm-10.587 78.799c.504 5.758 3.255 10.517 8.258 14.269l.099.073c5.057 3.696 10.839 5.259 17.345 4.69l25.662-2.245c17.709-1.55 32.372-8.422 43.996-20.617 11.554-12.242 16.645-26.204 15.273-41.883-1.372-15.68-8.808-28.518-22.307-38.517-13.57-10.044-29.206-14.292-46.914-12.743l-25.662 2.246c-6.507.569-11.929 3.113-16.267 7.631l-.085.088c-4.276 4.564-6.16 9.727-5.656 15.486z"/><path d="m165.2449 181.9099c-5.207 4.972-11.708 7.798-19.506 8.48l-48.786 4.268c-1.334.117-2.046-.385-2.144-1.505-.093-1.067.523-1.659 1.857-1.776l48.787-4.268c6.664-.583 12.228-3.003 16.689-7.263 4.468-4.207 6.466-9.004 5.995-14.392-.467-5.331-3.267-9.71-8.403-13.13-5.133-3.42-11.033-4.838-17.697-4.256l-24.492 2.144c-8.107.225-15.084-1.582-20.924-5.425-5.712-3.855-8.829-8.794-9.356-14.82-.546-6.24 1.75-11.842 6.891-16.807 5.21-4.917 11.714-7.715 19.511-8.397l40.589-3.552c1.398-.122 2.145.349 2.238 1.416s-.56 1.663-1.958 1.785l-40.589 3.551c-6.664.584-12.227 3.004-16.69 7.264-4.466 4.206-6.466 9.003-5.994 14.39.447 5.119 3.132 9.319 8.054 12.596 4.99 3.325 11.04 4.92 18.147 4.78l24.293-2.125c7.797-.683 14.688.946 20.675 4.882 5.922 3.996 9.158 9.115 9.704 15.354.55 6.294-1.747 11.897-6.891 16.806m7.878-42.365c-9.343-6.224-20.18-8.796-32.507-7.717l-23.694 2.072c-2.756-.026-5.06-.656-6.915-1.893-1.496-.998-2.313-2.268-2.449-3.816-.153-1.76.513-3.349 2.001-4.769 1.488-1.421 3.331-2.228 5.529-2.42l40.589-3.551c5.064-.443 9.27-2.263 12.617-5.457 3.285-3.135 4.749-6.73 4.395-10.783-.355-4.053-2.422-7.339-6.201-9.858-3.85-2.565-8.309-3.625-13.373-3.181l-40.589 3.55c-12.329 1.079-22.552 5.494-30.672 13.244-8.121 7.751-11.748 16.559-10.885 26.426.84 9.6 5.823 17.44 14.953 23.521 8.843 5.892 19.327 8.683 31.456 8.372.47.014.939-.001 1.406-.042l24.394-2.134c2.198-.192 4.154.281 5.866 1.421 1.71 1.14 2.643 2.591 2.797 4.35.154 1.76-.511 3.379-1.992 4.85-1.488 1.42-3.332 2.227-5.531 2.419l-48.786 4.269c-5.064.442-9.239 2.231-12.524 5.368-3.347 3.194-4.845 6.792-4.495 10.793.355 4.054 2.457 7.361 6.308 9.927 3.779 2.518 8.201 3.555 13.266 3.113l48.786-4.269c12.262-1.073 22.487-5.486 30.674-13.245 8.117-7.75 11.746-16.558 10.883-26.426-.858-9.812-5.962-17.859-15.307-24.134"/><path d="m386.6184 358.7936c-8.95 9.438-20.258 14.752-33.932 15.948l-25.662 2.245c-2.53.222-4.769-.388-6.717-1.832-1.887-1.446-2.927-3.29-3.124-5.53l-6.257-71.519c-.196-2.241.509-4.235 2.116-5.989 1.673-1.703 3.774-2.668 6.304-2.888l25.662-2.246c13.674-1.196 25.734 2.076 36.186 9.812 10.45 7.739 16.202 17.635 17.257 29.687 1.054 12.052-2.89 22.823-11.833 32.312m4.162-72.108c-13.568-10.044-29.204-14.292-46.913-12.743l-25.662 2.245c-6.506.57-11.929 3.113-16.267 7.629l-.085.09c-4.276 4.565-6.159 9.728-5.655 15.488l6.257 71.519c.504 5.76 3.255 10.517 8.259 14.271l.099.072c5.056 3.696 10.838 5.26 17.345 4.69l25.662-2.245c17.709-1.55 32.372-8.422 43.994-20.617 11.555-12.242 16.647-26.204 15.275-41.884-1.372-15.678-8.808-28.517-22.309-38.515"/></g></g></g></svg>