<?xml version="1.0" encoding="UTF-8"?>
<svg width="422px" height="144px" viewBox="0 0 422 144" version="1.1" xmlns="http://www.w3.org/2000/svg" xmlns:xlink="http://www.w3.org/1999/xlink">
    <title>NPCA logo - light</title>
    <g id="portfolio" stroke="none" stroke-width="1" fill="none" fill-rule="evenodd">
        <g id="NPCA-logo-light" transform="translate(-89.000000, -228.000000)" fill="#E4DED5" fill-rule="nonzero">
            <g id="NPCA-logo---light" transform="translate(89.000000, 228.000000)">
                <g id="NPCA-logotype/NPCA-logotype---white" transform="translate(175.000000, 21.000000)">
                    <path d="M1.375,46.1177 C1.375,38.0547 7.921,31.5067 16.037,31.5067 L16.037,35.1327 C9.923,35.1327 5.001,40.0567 5.001,46.1177 C5.001,52.2297 9.923,57.1537 16.037,57.1537 L16.037,60.7787 C7.921,60.7787 1.375,54.2317 1.375,46.1177" id="Fill-41"></path>
                    <path d="M31.9463,46.1177 C31.9463,52.3377 36.9783,57.3707 43.2013,57.3707 C49.4243,57.3707 54.4563,52.3377 54.4563,46.1177 C54.4563,39.8937 49.4243,34.8617 43.2013,34.8617 C36.9783,34.8617 31.9463,39.8937 31.9463,46.1177 M58.0803,46.1177 C58.0803,54.3397 51.4253,60.9937 43.2013,60.9937 C34.9783,60.9937 28.3223,54.3397 28.3223,46.1177 C28.3223,37.8917 34.9783,31.2377 43.2013,31.2377 C51.4253,31.2377 58.0803,37.8917 58.0803,46.1177" id="Fill-42"></path>
                    <polygon id="Fill-43" points="86.0947 60.5625 86.0947 37.1345 80.0337 45.2515 73.9737 37.1345 73.9737 60.5625 70.3497 60.5625 70.3497 31.7245 73.9737 31.7245 80.0337 39.3525 86.0947 31.7245 89.7187 31.7245 89.7187 60.5625"></polygon>
                    <polygon id="Fill-44" points="119.0234 60.5625 119.0234 37.1345 112.9634 45.2515 106.9044 37.1345 106.9044 60.5625 103.2794 60.5625 103.2794 31.7245 106.9044 31.7245 112.9634 39.3525 119.0234 31.7245 122.6484 31.7245 122.6484 60.5625"></polygon>
                    <path d="M136.0869,31.7241 L139.7119,31.7241 L139.7119,53.5831 C139.8189,55.9641 141.2269,57.6401 143.4989,57.6401 C145.6089,57.6401 146.7989,56.0711 146.9059,53.6371 L146.9059,31.7241 L150.5329,31.7241 L150.5329,52.1761 C150.5329,55.3691 150.2089,56.6661 149.1789,58.1811 C147.8819,60.0211 145.8259,60.9941 143.2819,60.9941 C140.4699,60.9941 138.0899,59.5881 136.8979,57.2611 C136.3019,56.0151 136.0869,54.8271 136.0869,51.9051 L136.0869,31.7241 Z" id="Fill-45"></path>
                    <polygon id="Fill-46" points="174.7354 60.5625 174.7354 44.3305 167.5934 36.6485 167.5934 60.5625 163.9694 60.5625 163.9694 31.7245 167.5934 31.7245 174.7354 39.3525 174.7354 31.7245 178.3614 31.7245 178.3614 60.5625"></polygon>
                    <polygon id="Fill-47" points="191.879 60.562 195.503 60.562 195.503 31.724 191.879 31.724"></polygon>
                    <polygon id="Fill-48" points="211.5098 60.5625 211.5098 35.1325 206.0988 35.1325 206.0988 31.7245 220.5428 31.7245 220.5428 35.1325 215.1338 35.1325 215.1338 60.5625"></polygon>
                    <polygon id="Fill-49" points="236.6123 60.5625 236.6123 43.6265 230.1213 31.7245 234.1793 31.7245 238.5083 39.9485 242.8363 31.7245 246.7853 31.7245 240.2383 43.6265 240.2383 60.5625"></polygon>
                    <polygon id="Fill-50" points="9.2129 22.3667 9.2129 10.4337 3.9619 4.7847 3.9619 22.3667 1.2969 22.3667 1.2969 1.1657 3.9619 1.1657 9.2129 6.7747 9.2129 1.1657 11.8779 1.1657 11.8779 22.3667"></polygon>
                    <path d="M29.7354,11.7466 C29.7354,16.3196 33.4364,20.0206 38.0084,20.0206 C42.5834,20.0206 46.2834,16.3196 46.2834,11.7466 C46.2834,7.1726 42.5834,3.4746 38.0084,3.4746 C33.4364,3.4746 29.7354,7.1726 29.7354,11.7466 M48.9474,11.7466 C48.9474,17.7916 44.0554,22.6846 38.0084,22.6846 C31.9624,22.6846 27.0694,17.7916 27.0694,11.7466 C27.0694,5.7016 31.9624,0.8076 38.0084,0.8076 C44.0554,0.8076 48.9474,5.7016 48.9474,11.7466" id="Fill-51"></path>
                    <path d="M66.8477,14.5698 C69.7507,14.4898 72.0977,12.0638 72.0977,9.1198 C72.0977,6.1768 69.7907,3.7518 66.8477,3.6328 L66.8477,14.5698 Z M66.8477,22.3668 L64.1847,22.3668 L64.1847,1.1658 L65.6557,1.1658 C72.6947,1.1658 74.7647,5.7418 74.7647,9.1198 C74.7647,12.4228 72.7347,15.2858 69.7907,16.4798 L74.9617,22.3668 L71.4607,22.3668 L66.8477,16.9168 L66.8477,22.3668 Z" id="Fill-52"></path>
                    <polygon id="Fill-53" points="91.793 22.3667 91.793 3.6707 87.816 3.6707 87.816 1.1657 98.438 1.1657 98.438 3.6707 94.459 3.6707 94.459 22.3667"></polygon>
                    <polygon id="Fill-54" points="118.7266 22.3667 118.7266 17.0767 113.5966 17.0767 113.5966 22.3667 110.9306 22.3667 110.9306 17.0767 109.6176 17.0767 109.6176 14.5697 110.9306 14.5697 110.9306 1.1657 113.5966 1.1657 113.5966 14.5697 118.7266 14.5697 118.7266 1.1657 121.3916 1.1657 121.3916 14.5697 122.7436 14.5697 122.7436 17.0767 121.3916 17.0767 121.3916 22.3667"></polygon>
                    <path d="M158.8721,14.5698 C161.7771,14.4898 164.1241,12.0638 164.1241,9.1198 C164.1241,6.1768 161.8151,3.7518 158.8721,3.6328 L158.8721,14.5698 Z M166.7881,9.1198 C166.7881,13.5348 163.2081,17.0768 158.8721,17.0768 L158.8721,22.3668 L156.2081,22.3668 L156.2081,1.1658 L158.1951,1.1658 C163.4471,1.1658 166.7881,4.7048 166.7881,9.1198 L166.7881,9.1198 Z" id="Fill-55"></path>
                    <path d="M190.8994,6.2178 C190.8994,4.4268 189.9044,3.2748 188.3534,3.2748 C186.7224,3.2748 185.6084,4.4668 185.6084,6.2568 L185.6084,14.5698 L190.8994,14.5698 L190.8994,6.2178 Z M190.8994,22.3668 L190.8994,17.0768 L185.6084,17.0768 L185.6084,22.3668 L182.9434,22.3668 L182.9434,17.0768 L181.6314,17.0768 L181.6314,14.5698 L182.9434,14.5698 L182.9434,7.5298 C182.9434,5.3808 183.0624,4.5068 183.5404,3.5918 C184.3754,1.8828 186.1674,0.8068 188.2324,0.8068 C190.0644,0.8068 191.5764,1.5618 192.5694,2.9158 C193.3264,4.0298 193.5644,4.9848 193.5644,7.3318 L193.5644,14.5698 L194.8774,14.5698 L194.8774,17.0768 L193.5644,17.0768 L193.5644,22.3668 L190.8994,22.3668 Z" id="Fill-56"></path>
                    <path d="M212.6201,14.5698 C215.5231,14.4898 217.8711,12.0638 217.8711,9.1198 C217.8711,6.1768 215.5631,3.7518 212.6201,3.6328 L212.6201,14.5698 Z M212.6201,22.3668 L209.9531,22.3668 L209.9531,1.1658 L211.4271,1.1658 C218.4671,1.1658 220.5351,5.7418 220.5351,9.1198 C220.5351,12.4228 218.5071,15.2858 215.5631,16.4798 L220.7341,22.3668 L217.2341,22.3668 L212.6201,16.9168 L212.6201,22.3668 Z" id="Fill-57"></path>
                    <polygon id="Fill-58" points="235.457 1.1655 238.122 1.1655 238.122 6.7745 242.776 1.1655 246.078 1.1655 241.582 6.4975 246.475 22.3665 243.611 22.3665 239.594 8.7245 238.122 10.5125 238.122 22.3665 235.457 22.3665"></polygon>
                    <path d="M9.293,76.2427 C9.293,74.4507 8.297,73.2997 6.747,73.2997 C5.116,73.2997 4.002,74.4917 4.002,76.2817 L4.002,84.5937 L9.293,84.5937 L9.293,76.2427 Z M9.293,92.3917 L9.293,87.1007 L4.002,87.1007 L4.002,92.3917 L1.337,92.3917 L1.337,87.1007 L0.024,87.1007 L0.024,84.5937 L1.337,84.5937 L1.337,77.5537 C1.337,75.4067 1.457,74.5307 1.933,73.6157 C2.769,71.9067 4.559,70.8317 6.627,70.8317 C8.457,70.8317 9.968,71.5887 10.963,72.9397 C11.719,74.0547 11.957,75.0087 11.957,77.3547 L11.957,84.5937 L13.271,84.5937 L13.271,87.1007 L11.957,87.1007 L11.957,92.3917 L9.293,92.3917 Z" id="Fill-59"></path>
                    <path d="M26.3242,76.998 C26.3242,73.696 29.0282,71.032 32.2882,71.032 L32.2882,73.696 C30.4612,73.696 28.9872,75.128 28.9872,76.998 C28.9872,77.993 29.3862,78.826 30.5002,79.782 C31.7732,80.816 33.5232,82.567 33.5232,85.51 C33.5232,89.409 30.3402,92.551 26.4412,92.551 L26.4412,89.884 C28.8692,89.884 30.8582,87.936 30.8582,85.51 C30.8582,84.356 30.2212,83.004 28.8292,81.81 C27.1582,80.418 26.3242,78.867 26.3242,76.998" id="Fill-60"></path>
                    <path d="M45.5,76.998 C45.5,73.696 48.204,71.032 51.467,71.032 L51.467,73.696 C49.639,73.696 48.167,75.128 48.167,76.998 C48.167,77.993 48.563,78.826 49.677,79.782 C50.95,80.816 52.7,82.567 52.7,85.51 C52.7,89.409 49.518,92.551 45.619,92.551 L45.619,89.884 C48.046,89.884 50.036,87.936 50.036,85.51 C50.036,84.356 49.398,83.004 48.006,81.81 C46.335,80.418 45.5,78.867 45.5,76.998" id="Fill-61"></path>
                    <path d="M66.3467,81.771 C66.3467,86.345 70.0467,90.044 74.6207,90.044 C79.1957,90.044 82.8937,86.345 82.8937,81.771 C82.8937,77.197 79.1957,73.497 74.6207,73.497 C70.0467,73.497 66.3467,77.197 66.3467,81.771 M85.5587,81.771 C85.5587,87.816 80.6667,92.709 74.6207,92.709 C68.5747,92.709 63.6827,87.816 63.6827,81.771 C63.6827,75.724 68.5747,70.832 74.6207,70.832 C80.6667,70.832 85.5587,75.724 85.5587,81.771" id="Fill-62"></path>
                    <path d="M97.4609,81.771 C97.4609,75.844 102.2719,71.032 108.2389,71.032 L108.2389,73.696 C103.7459,73.696 100.1239,77.316 100.1239,81.771 C100.1239,86.265 103.7459,89.884 108.2389,89.884 L108.2389,92.551 C102.2719,92.551 97.4609,87.737 97.4609,81.771" id="Fill-63"></path>
                    <polygon id="Fill-64" points="122.104 92.391 124.769 92.391 124.769 71.188 122.104 71.188"></polygon>
                    <path d="M146.292,76.2427 C146.292,74.4507 145.297,73.2997 143.745,73.2997 C142.114,73.2997 141.002,74.4917 141.002,76.2817 L141.002,84.5937 L146.292,84.5937 L146.292,76.2427 Z M146.292,92.3917 L146.292,87.1007 L141.002,87.1007 L141.002,92.3917 L138.336,92.3917 L138.336,87.1007 L137.023,87.1007 L137.023,84.5937 L138.336,84.5937 L138.336,77.5537 C138.336,75.4067 138.455,74.5307 138.932,73.6157 C139.768,71.9067 141.56,70.8317 143.626,70.8317 C145.456,70.8317 146.968,71.5887 147.963,72.9397 C148.718,74.0547 148.956,75.0087 148.956,77.3547 L148.956,84.5937 L150.271,84.5937 L150.271,87.1007 L148.956,87.1007 L148.956,92.3917 L146.292,92.3917 Z" id="Fill-65"></path>
                    <polygon id="Fill-66" points="165.9473 92.3916 165.9473 73.6956 161.9693 73.6956 161.9693 71.1886 172.5893 71.1886 172.5893 73.6956 168.6123 73.6956 168.6123 92.3916"></polygon>
                    <polygon id="Fill-67" points="184.328 92.391 186.993 92.391 186.993 71.188 184.328 71.188"></polygon>
                    <path d="M203.3457,81.771 C203.3457,86.345 207.0447,90.044 211.6187,90.044 C216.1927,90.044 219.8937,86.345 219.8937,81.771 C219.8937,77.197 216.1927,73.497 211.6187,73.497 C207.0447,73.497 203.3457,77.197 203.3457,81.771 M222.5567,81.771 C222.5567,87.816 217.6637,92.709 211.6187,92.709 C205.5737,92.709 200.6797,87.816 200.6797,81.771 C200.6797,75.724 205.5737,70.832 211.6187,70.832 C217.6637,70.832 222.5567,75.724 222.5567,81.771" id="Fill-68"></path>
                    <polygon id="Fill-69" points="243.8857 92.3916 243.8857 80.4576 238.6367 74.8096 238.6367 92.3916 235.9727 92.3916 235.9727 71.1886 238.6367 71.1886 243.8857 76.7986 243.8857 71.1886 246.5527 71.1886 246.5527 92.3916"></polygon>
                </g>
                <g id="NPCA-favicon/NPCA-favicon---white">
                    <path d="M32.9287,38.3521 L32.9287,76.1691 L28.9827,76.1691 L28.9827,33.5861 C28.9827,32.7901 29.4637,32.0691 30.1997,31.7631 C30.9377,31.4591 31.7867,31.6271 32.3517,32.1911 L69.5897,69.4291 L69.5897,31.6131 L73.5387,31.6131 L73.5387,74.1921 C73.5387,74.9901 73.0557,75.7131 72.3187,76.0181 C72.0737,76.1201 71.8187,76.1691 71.5617,76.1691 C71.0477,76.1691 70.5457,75.9671 70.1647,75.5901 L32.9287,38.3521 Z M81.7137,51.9161 L104.0487,51.9161 C108.5557,51.9161 112.2287,48.2481 112.2287,43.7401 C112.2287,39.2291 108.5557,35.5601 104.0487,35.5601 L81.7137,35.5601 L81.7137,31.6131 L104.0487,31.6131 C110.7367,31.6131 116.1747,37.0521 116.1747,43.7401 C116.1747,50.4261 110.7367,55.8651 104.0487,55.8651 L81.7137,55.8651 L81.7137,51.9161 Z M38.2977,85.5971 C34.8357,89.0601 32.9287,93.6641 32.9287,98.5591 C32.9287,103.4551 34.8357,108.0561 38.2977,111.5191 C45.4447,118.6641 57.0747,118.6641 64.2207,111.5191 L98.7367,77.0031 C99.5077,76.2351 100.7567,76.2321 101.5277,77.0031 L132.5457,108.0201 C138.7657,97.4571 142.3367,85.1511 142.3367,72.0081 C142.3367,32.7601 110.5237,0.9441 71.2747,0.9441 C32.0287,0.9441 0.2147,32.7601 0.2147,72.0081 C0.2147,111.2541 32.0287,143.0701 71.2747,143.0701 C95.9297,143.0701 117.6467,130.5151 130.3917,111.4521 L100.1317,81.1911 L67.0127,114.3101 C62.6677,118.6521 56.9637,120.8251 51.2607,120.8251 C45.5557,120.8251 39.8487,118.6521 35.5057,114.3101 C26.8207,105.6251 26.8207,91.4901 35.5057,82.8081 C44.1907,74.1221 58.3267,74.1221 67.0127,82.8081 L64.2207,85.5971 C57.0727,78.4521 45.4447,78.4521 38.2977,85.5971 L38.2977,85.5971 Z" id="Fill-70"></path>
                </g>
            </g>
        </g>
    </g>
</svg>