<?xml version="1.0" encoding="UTF-8"?>
<svg width="445px" height="164px" viewBox="0 0 445 164" version="1.1" xmlns="http://www.w3.org/2000/svg" xmlns:xlink="http://www.w3.org/1999/xlink">
    <title>Sapient</title>
    <g id="portfolio" stroke="none" stroke-width="1" fill="none" fill-rule="evenodd">
        <g id="Sapient-logo-light" transform="translate(-77.000000, -218.000000)" fill="#E4DED5">
            <g id="Sapient" transform="translate(77.000000, 218.000000)">
                <path d="M38.9721707,135.862559 C38.9721707,128.00237 45.9970845,122.239336 53.6374238,122.239336 L69.5335277,122.241706 C75.8714551,122.241706 81,117.156398 81,110.874408 L81,95.021327 C81,88.7345972 75.8714551,83.6919431 69.5335277,83.6919431 L52.5687782,83.6824645 C44.6278823,83.6824645 38.8028094,76.7203791 38.8028094,69.1492891 L38.8147363,52.0023697 C38.8147363,44.1492891 45.8420355,38.3436019 53.4847601,38.3436019 L69.5335277,38.3909953 C75.8714551,38.3909953 81,33.3862559 81,27.1113744 L81,11.3625592 C81,5.07819905 75.8714551,0 69.5335277,0 L53.6374238,0 C47.3114233,0 42.1637954,5.07819905 42.1637954,11.3625592 L42.1637954,27.2725118 C42.1637954,34.8412322 36.2981712,41.8033175 28.373973,41.8033175 L11.4807845,41.8033175 C5.15001325,41.8033175 0,46.8483412 0,53.1350711 L0,68.9881517 C0,75.2701422 5.15001325,80.3554502 11.4807845,80.3554502 L27.6464352,80.3554502 C35.2820037,80.3554502 42.3140737,86.1611374 42.3140737,94.0189573 L42.3188444,111.123223 C42.3188444,118.696682 36.4627617,125.630332 28.5266366,125.533175 L11.4807845,125.533175 C5.15001325,125.533175 0,130.599526 0,136.874408 L0,152.630332 C0,158.917062 5.15001325,164 11.4807845,164 L27.4866154,164 C33.8245428,164 38.9650146,158.917062 38.9650146,152.630332 L38.9721707,135.862559" id="Fill-2"></path>
                <path d="M152.830675,49.6106492 C152.937625,49.2911723 153.151526,48.8699362 153.151526,48.5528258 C153.151526,48.2357154 152.937625,47.6014946 151.345252,46.6501635 C146.252033,43.5855519 138.078642,42 132.562375,42 C120.781187,42 109.318475,47.918605 109.318475,63.4522809 C109.318475,67.9983185 110.166948,72.118387 113.67017,75.9237117 C117.48949,80.0437802 123.222034,82.2635529 130.014577,85.5387825 C135.744745,88.2862837 140.203391,90.6125487 140.203391,96.8458976 C140.203391,101.813171 137.548643,106.569827 130.651526,106.569827 C125.237456,106.569827 119.611862,104.560673 116.747967,103.505216 C114.095595,102.447392 113.56322,101.919664 113.033221,101.919664 C112.396271,101.919664 112.077797,102.3409 111.866272,102.975121 L109.425425,109.845057 C109.211524,110.26866 109,110.796388 109,111.217624 C109,112.69905 111.440847,113.648015 112.396271,114.071618 C117.066441,115.867788 122.90356,118 131.074575,118 C146.993557,118 154,106.886938 154,95.5798225 C154,89.8718356 152.089152,83.3213763 144.873561,78.0369921 C141.47729,75.500109 136.700169,73.2803363 134.470846,72.2248793 C127.148305,68.7366651 123.115084,67.0446209 123.115084,61.4454928 C123.115084,56.2676008 126.722879,53.4136073 132.455424,53.4136073 C137.230168,53.4136073 141.581863,54.892667 144.76661,56.4782189 C146.888983,57.5360423 147.418982,58.0637708 147.951357,58.0637708 C148.481356,58.0637708 148.799831,57.6401681 149.118306,57.0059474 L152.830675,49.6106492" id="Fill-3"></path>
                <path d="M203.135736,115.258503 C203.460138,115.154052 204,114.835953 204,114.199754 C204,113.67038 203.566657,112.927357 202.811334,111.01876 C201.189326,106.990293 201.189326,103.598025 201.189326,100.523855 L201.189326,80.0657934 C201.189326,78.1571972 200.973865,73.3880807 198.811994,69.7821633 C195.567978,64.376848 189.297827,63 182.594333,63 C178.161651,63 170.487373,63.8474737 166.054691,65.8605204 C163.244017,67.1329178 163.244017,67.5578416 163.783879,69.041514 L166.054691,75.7192267 C166.270151,76.4622499 166.488033,76.7803492 167.136836,76.7803492 C167.89216,76.7803492 168.649904,76.248601 172.324842,75.083028 C175.026575,74.2355543 178.270591,73.5993556 181.081265,73.5993556 C184.1074,73.5993556 185.94729,74.5536537 186.918074,75.7192267 C188.324622,77.4165479 188.215681,79.958969 188.215681,81.4426414 L188.215681,84.7304594 C182.05447,84.5168106 171.891499,85.3666581 166.594553,89.077026 C164.326162,90.6675229 160,94.6936163 160,102.857375 C160,112.609257 166.270151,118.987862 175.99978,118.987862 C183.136616,118.987862 187.027015,115.790251 189.837689,113.034181 L190.271032,112.609257 C190.595433,114.306578 191.135296,115.790251 192.108501,117.715464 C192.972765,119.305961 193.621568,119.094686 194.379312,118.776587 L203.135736,115.258503 Z M188.215681,105.081697 C185.838349,107.626492 182.918735,109.112538 180.108061,109.112538 C176.217662,109.112538 172.973645,106.249644 172.973645,101.903077 C172.973645,95.6479144 178.919395,93.4212188 187.566878,93.4212188 L188.215681,93.4212188 L188.215681,105.081697 L188.215681,105.081697 Z" id="Fill-4"></path>
                <path d="M229.47495,115.421022 L229.899799,115.63542 C230.958361,116.166648 233.820752,118.205803 240.497291,118.205803 C259.575151,118.205803 260,97.6570265 260,89.6790698 C260,66.3812448 249.611372,62.0218359 241.344616,62.0218359 C237.105619,62.0218359 232.548579,63.4035065 228.09597,67.5509005 C227.777927,66.595642 227.566689,65.6380013 227.14184,64.6803607 C225.976472,61.4882252 224.917909,61.8074387 223.220886,62.3386672 L215.165368,64.9995742 C214.636087,65.2115892 214,65.5308028 214,66.1692299 C214,66.4884434 214.106806,66.807657 214.424849,67.8724962 C215.165368,70.1046089 216.015066,73.615958 216.015066,82.7635702 L216.015066,137.353852 C216.015066,139.37395 216.862391,139.054736 217.709716,138.842721 L227.462257,136.820241 C229.581755,136.396212 229.47495,135.864983 229.47495,134.907342 L229.47495,115.421022 Z M229.47495,76.7008949 L229.899799,76.2744828 C231.594448,74.5735986 234.243228,72.6583173 237.6349,72.6583173 C246.326505,72.6583173 246.537743,82.8707688 246.537743,89.3598563 C246.537743,97.6570265 246.115268,100.741963 244.843094,103.081275 C242.830401,106.911837 239.543161,107.550264 237.105619,107.550264 C235.622207,107.550264 232.548579,107.443066 229.47495,105.527785 L229.47495,76.7008949 L229.47495,76.7008949 Z" id="Fill-5"></path>
                <path d="M276.638926,74.3534797 L276.638926,115.511444 C276.638926,116.680854 276.745682,117 278.124027,117 L288.609888,117 C289.777092,117 290.092617,116.895206 290.092617,115.511444 L290.092617,65.9508815 C290.092617,64.7814723 289.988233,64.462326 288.609888,64.462326 L268.482729,64.462326 C267.317897,64.462326 267,64.7814723 267,65.9508815 L267,72.8625425 C267,74.0319517 267.317897,74.3534797 268.482729,74.3534797 L276.638926,74.3534797 Z M274.627159,48.7217445 C274.627159,53.5065574 278.546309,57.4411073 283.314766,57.4411073 C288.08085,57.4411073 292,53.5065574 292,48.7217445 C292,43.93455 288.08085,40 283.314766,40 C278.546309,40 274.627159,43.93455 274.627159,48.7217445 L274.627159,48.7217445 Z" id="Fill-6"></path>
                <path d="M343.529931,94.5960144 C344.927312,94.5960144 346,94.4891668 346,91.2030104 C346,88.446343 345.891769,84.5214755 344.819081,80.0694933 C342.885355,71.7994912 338.053447,63 324.519776,63 C309.482897,63 301,75.6151367 301,92.3688361 C301,99.6843333 302.503207,119 325.486638,119 C331.501871,119 338.589792,117.409158 342.563068,114.740343 C343.424105,114.210854 344.282737,113.46767 344.282737,112.408692 C344.282737,112.090524 344.174506,111.879203 343.960449,111.454187 L341.273918,105.197668 C341.059861,104.668179 340.737573,104.350011 340.092998,104.350011 C339.448423,104.350011 338.481561,104.775026 337.194816,105.411363 C335.152859,106.363494 331.39364,107.849862 326.453501,107.849862 C317.540086,107.849862 314.639498,102.336527 314.639498,94.5960144 L343.529931,94.5960144 Z M314.639498,84.7351707 C315.284073,77.5241467 317.645911,72.8584694 323.769375,72.8584694 C328.064939,72.8584694 330.21272,75.2993428 331.071352,79.3263091 C331.287814,80.1763409 331.607696,81.8716557 331.501871,84.7351707 L314.639498,84.7351707 L314.639498,84.7351707 Z" id="Fill-7"></path>
                <path d="M400,77.7575145 C400,69.5859092 395.790237,62.061965 386.077815,62.061965 C381.007733,62.061965 375.39391,63.5667538 369.458676,69.4799721 C369.137264,67.3299297 368.59594,65.6084513 368.057032,64.3179444 C366.9768,61.8452754 366.546641,61.6309934 364.388594,62.382184 L356.186564,65.0715426 C355.106332,65.3941694 355,66.0394228 355,66.4679867 C355,67.4358669 355.430159,67.8668384 355.971484,70.0168807 C356.616723,72.8121765 357.049299,76.0384438 357.049299,83.0254793 L357.049299,115.495211 C357.049299,116.894063 357.373127,117 358.559691,117 L369.243596,117 C370.647656,117 370.753987,116.677373 370.753987,115.495211 L370.753987,77.7575145 C374.855002,73.9943386 377.875785,73.3490851 379.927501,73.3490851 C385.971484,73.3490851 386.295312,78.402768 386.295312,82.3802259 L386.295312,115.495211 C386.295312,116.894063 386.61914,117 387.805703,117 L398.489609,117 C399.891252,117 400,116.677373 400,115.495211 L400,77.7575145" id="Fill-8"></path>
                <path d="M416.87905,98.4709339 C416.87905,109.099593 417.08962,119 430.879639,119 C434.328314,119 438.925766,118.362185 442.163871,117.069897 C444.671998,116.113174 445.299029,115.687171 444.880228,114.092635 L442.790902,105.3798 C442.685617,104.953797 442.269156,104.741985 441.95564,104.741985 C441.536839,104.741985 441.015092,104.953797 439.96926,105.3798 C437.149956,106.548334 435.685323,106.760145 434.223028,106.760145 C429.836146,106.760145 430.149662,103.785263 430.149662,100.277282 L430.149662,74.5600219 L440.806862,74.5600219 C441.328608,74.5600219 442.163871,74.3458304 442.372101,73.0702009 L443.626165,66.8015295 C443.834395,65.7377116 444.253197,64.6762737 442.058585,64.6762737 L430.149662,64.6762737 L430.149662,49.7971036 C430.149662,48.7332858 430.460838,47.6718479 427.74682,48.0954711 L418.551915,49.3711005 C417.716652,49.4781963 416.87905,49.6900079 416.87905,51.2845447 L416.87905,64.6762737 L409.462294,64.6762737 C408.208231,64.569178 408,65.3117085 408,66.1637148 L408,73.0702009 C408,74.2387346 408.313516,74.5600219 409.462294,74.5600219 L416.87905,74.5600219 L416.87905,98.4709339" id="Fill-9"></path>
            </g>
        </g>
    </g>
</svg>