<?xml version="1.0" encoding="UTF-8"?>
<svg width="338px" height="199px" viewBox="0 0 338 199" version="1.1" xmlns="http://www.w3.org/2000/svg" xmlns:xlink="http://www.w3.org/1999/xlink">
    <title>san-diego-gas-and-electric-company-sdge-logo-vector</title>
    <g id="portfolio" stroke="none" stroke-width="1" fill="none" fill-rule="evenodd">
        <g id="SDGE-logo-light" transform="translate(-131.000000, -201.000000)" fill="#E4DED5" fill-rule="nonzero">
            <g id="san-diego-gas-and-electric-company-sdge-logo-vector" transform="translate(131.000000, 201.000000)">
                <path d="M337.930233,0.279069767 L335.767442,7.18604651 L324.674419,46.4651163 L293.27907,46.4651163 C281.837209,46.6046512 270.674419,55.0465116 266.209302,65.9302326 L267.534884,61.0465116 L279.325581,20.3023256 C283.651163,9.13953488 293.976744,1.39534884 305.906977,0.279069767 L337.930233,0.279069767 Z" id="Path"></path>
                <path d="M257.627907,30.0697674 C259.72093,32.3023256 260.697674,35.372093 260.27907,38.372093 L255.395349,55.9534884 L236.906977,55.8139535 C237.953488,51.627907 239.27907,47.7209302 240.116279,43.3255814 C240.186047,42.5581395 240.046512,41.8604651 239.697674,41.2325581 C236.27907,38.0232558 231.395349,36.9069767 226.860465,38.372093 C220.860465,39.5581395 216.186047,45.4883721 213.534884,50.8604651 L211.44186,55.8837209 L200.348837,94.6744186 C199.232558,98.372093 197.55814,102.976744 200.27907,106.465116 C204.813953,111.976744 212.976744,111.906977 219.116279,110.162791 C220.790698,109.534884 222.953488,109.186047 223.860465,107.72093 C225.534884,101.581395 227.55814,95.372093 229.093023,89.2325581 L228.674419,89.0232558 L215.348837,89.0232558 L219.883721,72.627907 L220.232558,72.3488372 C220.162791,72.2093023 220.023256,72.2093023 220.023256,72 C229.930233,71.8604651 240.325581,72 250.581395,72 L250.372093,73.3953488 L236.069767,122.790698 C221.27907,126.697674 202.511628,129.906977 188,123.209302 C179.976744,118.116279 178.302326,108.348837 179.767442,99.4883721 L181.023256,94.6046512 L193.44186,52.255814 C197.139535,40.744186 203.976744,28.255814 216.046512,24.5581395 C227.488372,21.9069767 239.418605,22.1860465 250.651163,25.5348837 C253.302326,26.5116279 255.744186,28.1162791 257.697674,30.2093023 L257.627907,30.0697674 Z" id="Path"></path>
                <path d="M103.023256,46.3255814 C105.255814,48.6976744 106.093023,52.0465116 105.186047,55.1860465 L100.162791,72.3488372 C93.744186,72.6976744 87.6744186,72.2093023 81.4651163,72.3488372 C82.372093,68.6511628 83.627907,65.0930233 84.5348837,61.255814 C84.6046512,58.8837209 83.3488372,56.6511628 81.3255814,55.5348837 C77.3488372,53.7906977 72.6744186,54.4883721 69.4651163,57.3488372 C65.2093023,60.8372093 62.7674419,66.1395349 62.9767442,71.7209302 C63.1162791,73.744186 63.9534884,75.6976744 65.3488372,77.1627907 C71.4186047,82.8837209 77.9767442,88.1162791 84.255814,93.7674419 C88.0232558,97.8837209 89.627907,103.534884 88.5813953,108.976744 C87.255814,121.534884 80.3488372,134.372093 68.4186047,139.744186 C57.3255814,144.767442 42.8139535,146.511628 31.3023256,141.348837 C25.372093,138 22.0232558,131.44186 22.8604651,124.744186 C23.9767442,119.023256 26.0697674,113.651163 27.3953488,108.139535 C33.0465116,108 40.0232558,108.139535 46.3023256,108.139535 C45.6046512,113.651163 40.2325581,121.255814 46.5116279,125.790698 C50.3488372,128.651163 55.7209302,126.837209 59.4186047,124.744186 C63.8837209,121.255814 66.9534884,116.162791 67.9302326,110.581395 C68.5581395,104.860465 62.4186047,102.906977 59.3488372,99.2093023 C52.8604651,92.3023256 41.9767442,87.6976744 41.5581395,77.0232558 C41.6976744,66.627907 45.3953488,56.6511628 52.0232558,48.627907 C63.1860465,37.1860465 82.3023256,36.2093023 96.255814,41.8604651 C98.7674419,42.8372093 101.069767,44.372093 102.953488,46.3255814 L103.023256,46.3255814 Z" id="Path"></path>
                <path d="M156.046512,41.0232558 C163.44186,41.6511628 171.255814,44.0232558 174.744186,51.5581395 C178.162791,58.4651163 176.27907,66.9767442 174.395349,74.0930233 L159.186047,125.860465 C155.627907,135.209302 146.767442,141.418605 136.790698,141.627907 L92.9069767,141.627907 L93.255814,140.372093 L105.534884,97.8837209 L122.069767,40.9534884 L156.046512,41.0232558 L156.046512,41.0232558 Z M137.348837,57.2790698 L137.139535,57.5581395 L117.744186,124.116279 L117.953488,124.465116 C123.674419,124.534884 129.186047,124.813953 135.325581,124.465116 C137.348837,123.976744 139.232558,122.790698 140.55814,121.186047 C143.348837,116.511628 144.046512,111.209302 145.72093,106.046512 L156.395349,69.8372093 C157.023256,67.5348837 158.139535,64.8139535 157.093023,62.4418605 C156.186047,60 154.093023,58.255814 151.581395,57.627907 L137.348837,57.2790698 L137.348837,57.2790698 Z" id="Shape"></path>
                <path d="M314.767442,72 C313.44186,77.5116279 311.697674,83.0930233 310.023256,88.8139535 C299.906977,88.9534884 290.209302,89.0232558 280.44186,88.9534884 C278,96.6976744 275.697674,104.511628 273.534884,112.395349 L273.953488,112.604651 L301.511628,112.604651 L301.651163,112.813953 C299.906977,118.674419 298.232558,124.744186 296.418605,130.674419 L268.372093,130.744186 C265.44186,139.674419 263,148.395349 260.488372,157.325581 L260.55814,157.534884 C271.023256,157.744186 281.348837,157.534884 291.883721,157.744186 L287,174.976744 L283.162791,175.186047 L235.023256,175.186047 L235.372093,173.162791 L250.651163,120.27907 L264.395349,72.0697674 L264.604651,71.9302326 L314.767442,72 L314.767442,72 Z" id="Path"></path>
                <path d="M220.093023,178.604651 C216.046512,188.790698 206.069767,197.232558 195.325581,198.418605 L189.046512,198.837209 L0.534883721,198.697674 L14.1395349,152.860465 C23.1395349,152.511628 205.302326,152.860465 205.302326,152.860465 C217.162791,152.651163 228.674419,144 233,132.627907 L220.093023,178.604651 L220.093023,178.604651 Z" id="Path"></path>
            </g>
        </g>
    </g>
</svg>