<?xml version="1.0" encoding="UTF-8"?>
<svg width="456px" height="78px" viewBox="0 0 456 78" version="1.1" xmlns="http://www.w3.org/2000/svg" xmlns:xlink="http://www.w3.org/1999/xlink">
    <title>portfolio/sony/sony logo full</title>
    <g id="portfolio" stroke="none" stroke-width="1" fill="none" fill-rule="evenodd">
        <g id="sony-logo-full" transform="translate(-71.000000, -261.000000)" fill="#E4DED5">
            <g id="Sony" transform="translate(71.000000, 261.000000)">
                <path d="M449.018411,63 C445.134841,63 442,66.1348413 442,69.9815886 C442,73.8676135 445.134841,77 449.018411,77 C452.884797,77 456,73.8676135 456,69.9815886 C456,66.1348413 452.884797,63 449.018411,63 Z M449.018411,76.157987 C445.611082,76.157987 442.861652,73.4085569 442.861652,69.9815886 C442.861652,66.5914431 445.611082,63.8444678 449.018411,63.8444678 C452.408557,63.8444678 455.157987,66.5914431 455.157987,69.9815886 C455.157987,73.4085569 452.408557,76.157987 449.018411,76.157987 L449.018411,76.157987 Z" id="Fill-2"></path>
                <path d="M453,68.1160966 C453,67.4408535 452.717004,66.7304675 452.148633,66.3915908 C451.580262,66.037653 450.940547,66 450.30321,66 L447,66 L447,74 L447.925089,74 L447.925089,70.3074992 L449.627824,70.3074992 L451.794293,74 L452.895363,74 L450.605232,70.3074992 C451.953627,70.2698463 453,69.6899906 453,68.1160966 Z M449.344828,69.5393787 L447.925089,69.5393787 L447.925089,66.7103859 L450.08918,66.7103859 C451.030916,66.7103859 452.060642,66.8609978 452.060642,68.0960151 C452.060642,69.7276436 450.407848,69.5393787 449.344828,69.5393787 L449.344828,69.5393787 Z" id="Fill-3"></path>
                <path d="M408.216849,30.7628047 L422.455199,15.6481281 C423.28054,14.5385044 423.690769,13.7615251 423.690769,13.0962365 C423.690769,11.9866129 422.728685,11.5422778 419.713016,11.5422778 L416.121074,11.5422778 L416.121074,2 L455,2 L455,11.5422778 L449.889236,11.5422778 C443.989758,11.5422778 442.890931,12.4285199 434.664383,22.747777 L412.14088,46.9312596 L412.14088,61.6890114 C412.14088,65.4646455 414.060164,66.7903665 419.549413,66.7903665 L428.051889,66.7903665 L428.051889,76 L373.596486,76 L373.596486,66.7903665 L382.101404,66.7903665 C387.588211,66.7903665 389.509937,65.4646455 389.509937,61.6890114 L389.509937,46.9312596 L362.984264,17.7532566 C358.596283,12.6519014 359.2043,11.5422778 347,11.5422778 L347,2 L396.246965,2 L396.246965,11.5422778 L392.740487,11.5422778 C389.172963,11.5422778 387.663908,12.2075664 387.663908,13.5381435 C387.663908,14.6501952 388.760293,15.5388654 389.446449,16.4226794 L402.866784,30.9643338 C404.45642,32.6129868 406.400122,32.8290842 408.216849,30.7628047" id="Fill-4"></path>
                <path d="M78.7311858,2.31132512 L90.6223789,2.31132512 L90.6223789,28.7133994 L79.6404405,28.7133994 C78.6676358,23.4358737 75.3165925,21.382165 72.2564129,18.6133901 C66.737335,13.6199648 54.7923688,9.46198722 44.7441274,9.46198722 C31.7750277,9.46198722 20.8297527,13.4249468 20.8297527,19.2514122 C20.8297527,35.4258728 95,22.554681 95,53.1364015 C95,69.0893601 79.1124862,78 50.5809556,78 C40.7038104,78 25.7573263,74.9784239 16.938534,70.3678118 C14.1716623,68.7932216 13.0008748,71.8533198 12.4826974,75.6886749 L0.290863715,75.6886749 L0.290863715,48.4054079 L11.3167983,48.4054079 C13.74881,55.3393833 17.0998533,56.7671081 20.182031,59.5190295 C25.5300126,64.3583665 38.2595775,67.8807297 49.9332338,67.7675711 C67.5317107,67.5966293 73.5860756,63.8070192 73.5860756,58.3055839 C73.5860756,52.8065562 67.6001492,51.4871747 48.3127074,48.5161589 L31.936347,45.8773961 C13.4555021,43.1254746 0,39.0541717 0,24.5337531 C0,9.46198722 17.0240821,0 43.9350863,0 C55.2738827,0 64.7672833,1.49273081 73.8720508,6.56560793 C76.3969434,8.17631262 78.7629609,8.37133068 78.7311858,2.31132512" id="Fill-5"></path>
                <path d="M310.067112,47.0134528 L310.303647,17.4226794 C310.303647,13.5402107 308.277248,12.2072054 302.478478,12.2072054 L295.667727,12.2072054 L295.667727,3 L339,3 L339,12.2072054 L333.349979,12.2072054 C327.551209,12.2072054 325.522371,13.5402107 325.522371,17.4226794 L325.522371,77 L308.557676,76.8688847 L253.637617,25.0783542 L253.637617,62.6865833 C253.637617,66.4597893 255.666455,67.8996292 261.462786,67.8996292 L268.997774,67.8996292 L268.997774,77 L224,77 L224,67.8996292 L231.454517,67.8996292 C237.250848,67.8996292 239.282125,66.4597893 239.282125,62.6865833 L239.282125,17.4226794 C239.282125,13.5402107 237.250848,12.2072054 231.454517,12.2072054 L224,12.2072054 L224,3 L262.91126,3 L310.067112,47.0134528" id="Fill-6"></path>
                <path d="M165.225861,0 C130.645992,0 109,15.0722311 109,39.2744783 C109,63.040931 130.345658,78 164.171031,78 C200.101179,78 221,63.2600321 221,38.0658106 C221,15.4044944 198.445682,0 165.225861,0 Z M164.439622,68.429374 C145.298851,68.429374 134.296388,57.5369181 134.296388,38.7255217 C134.296388,20.3523274 145.777431,9.45987159 165.39434,9.45987159 C184.215243,9.45987159 195.220149,20.5738363 195.220149,39.4959872 C195.220149,57.9775281 184.056531,68.429374 164.439622,68.429374 L164.439622,68.429374 Z" id="Fill-7"></path>
            </g>
        </g>
    </g>
</svg>