<?xml version="1.0" encoding="UTF-8"?>
<svg width="490px" height="106px" viewBox="0 0 490 106" version="1.1" xmlns="http://www.w3.org/2000/svg" xmlns:xlink="http://www.w3.org/1999/xlink">
    <title>portfolio/thermofisher/thermofisher logo full</title>
    <g id="portfolio" stroke="none" stroke-width="1" fill="none" fill-rule="evenodd">
        <g id="thermofisher-logo-full" transform="translate(-55.000000, -246.000000)" fill="#E4DED5">
            <g id="Thermo_Fisher_Scientific_logo" transform="translate(55.000000, 246.000000)">
                <path d="M47.5834719,11.2792257 L47.5834719,0.794324256 L0.500116125,0.794324256 L0.500116125,11.2792257 L16.63689,11.2792257 L16.63689,56.869163 L31.2204613,56.869163 L31.2204613,11.2792257 L47.5834719,11.2792257 Z M229.068881,56.869163 C228.681668,53.1447796 228.44238,50.269817 228.44238,48.3270392 L228.44238,29.4524742 C228.44238,21.6116671 222.708147,16.7198747 215.103111,16.7198747 C209.590764,16.7939267 204.787583,19.281205 202.146704,23.6284969 C200.519539,19.281205 195.712008,16.9507429 191.209025,16.9507429 C185.779343,16.9507429 181.202398,18.7367045 178.635481,23.6284969 L178.330931,17.8045196 L164.991662,17.8045196 L164.991662,56.869163 L178.796457,56.869163 L178.796457,33.3423857 C178.796457,32.1009246 178.252619,25.4188145 184.617704,25.4188145 C188.881397,25.4188145 189.895112,29.225962 189.895112,32.9503453 L189.895112,56.869163 L203.621594,56.869163 L203.621594,33.3423857 C203.621594,32.1009246 203.077755,25.4188145 209.43849,25.4188145 C213.706534,25.4188145 214.711547,29.225962 214.711547,32.9503453 L214.711547,56.869163 L229.068881,56.869163 L229.068881,56.869163 Z M161.819997,29.300014 L161.819997,17.4168353 C155.846475,17.3340712 151.265181,19.281205 149.485741,25.2619984 L149.176841,17.8045196 L135.367696,17.8045196 C135.676596,20.9887585 135.676596,25.2619984 135.676596,27.8233287 L135.676596,56.869163 L149.485741,56.869163 L149.485741,39.7849155 C149.485741,33.3423857 151.347844,29.3740661 158.952881,29.221606 C159.879581,29.221606 160.810633,29.221606 161.819997,29.300014 L161.819997,29.300014 Z M252.85855,16.7198747 C240.137081,16.7198747 231.835931,23.785313 231.835931,37.2192292 C231.835931,51.0451857 240.215394,57.9581639 252.85855,57.9581639 C265.501705,57.9581639 273.881168,51.0451857 273.881168,37.2192292 C273.881168,23.785313 265.580018,16.7198747 252.85855,16.7198747 L252.85855,16.7198747 Z M252.85855,24.9527221 C258.675445,24.9527221 259.763122,30.9291595 259.763122,37.0667691 C259.763122,44.2149715 258.523171,49.8037246 252.85855,49.8037246 C247.193929,49.8037246 245.953977,44.2149715 245.953977,37.0667691 C245.953977,30.8507514 247.041654,24.874314 252.85855,24.874314 L252.85855,24.9527221 Z M90.111637,56.869163 C89.724424,53.1447796 89.5677985,50.5006852 89.5677985,48.3270392 L89.5677985,29.4524742 C89.5677985,21.6116671 83.7509027,16.7198747 76.1502168,16.7198747 C73.8225884,16.7198747 71.5689219,17.107559 69.6328571,17.9613358 C67.8490671,18.8151126 66.1435898,20.0522177 64.6686999,21.9209434 L64.6686999,0.789968252 L50.8595546,0.789968252 L50.8595546,56.864807 L64.6686999,56.864807 L64.6686999,33.3380297 C64.6686999,32.0965686 64.1248615,25.4144585 70.4855958,25.4144585 C74.8276018,25.4144585 75.7630039,29.221606 75.7630039,32.9459893 L75.7630039,56.864807 L90.111637,56.864807 L90.111637,56.869163 Z M132.313499,40.0157837 C132.391812,25.958959 128.20208,16.7198747 112.609145,16.7198747 C100.27489,16.7198747 92.9134926,24.3298135 92.9134926,36.2129923 C92.9134926,50.8186735 98.1038865,57.9581639 113.309609,57.9581639 C118.038828,57.9581639 122.228559,56.869163 125.408926,54.695517 C128.824232,52.443463 131.617386,48.8715397 132.004599,43.9753913 L118.969879,43.9753913 C118.582666,47.5516705 116.494327,49.9561847 112.378558,49.9561847 C107.101149,49.9561847 106.017823,44.9075761 106.096136,40.0157837 L132.313499,40.0157837 Z M119.126505,32.4886089 L106.331074,32.4886089 C106.635624,28.3721852 107.566675,24.1773534 112.691809,23.9464852 C115.015086,23.8637211 116.57264,24.9527221 117.577653,26.6646317 C118.66533,28.2937771 119.126505,30.4674231 119.126505,32.562661 L119.126505,32.4886089 Z" id="path2384"></path>
                <path d="M489.932948,28.6030534 L489.932948,16.7155187 C483.959427,16.6371106 479.382482,18.5842443 477.598692,24.5650378 L477.289792,17.8045196 L463.480647,17.8045196 C463.789547,20.9887585 463.789547,25.2576424 463.789547,27.8276847 L463.789547,56.873519 L477.598692,56.873519 L477.598692,39.7805595 C477.598692,33.3380297 479.460795,28.6771055 487.061481,28.5202893 C487.992532,28.5202893 488.927935,28.5202893 489.932948,28.6030534 L489.932948,28.6030534 Z M418.107119,56.873519 C417.719906,53.1447796 417.563281,50.5006852 417.563281,48.3270392 L417.563281,29.4524742 C417.563281,21.6073111 411.746385,16.7155187 404.145699,16.7155187 C401.81807,16.7155187 399.716679,17.103203 397.784965,17.9569798 C396.001175,18.8107565 394.139072,20.0565737 392.664182,21.9209434 L392.664182,0.794324256 L378.850686,0.794324256 L378.850686,56.869163 L392.664182,56.869163 L392.664182,33.3380297 C392.664182,32.0922126 392.120344,25.4144585 398.481078,25.4144585 C402.827435,25.4144585 403.758486,29.221606 403.758486,32.9503453 L403.758486,56.869163 L418.107119,56.869163 L418.107119,56.873519 Z M375.470186,45.2212084 C375.470186,39.162007 372.285468,36.2129923 367.86515,34.5838468 C359.568351,31.6261201 353.359891,31.478016 353.359891,28.3634732 C353.359891,26.0417231 354.678156,24.7174979 356.923121,24.7174979 C358.706911,24.7174979 359.877251,25.1792343 360.647326,25.958959 C361.34779,26.7386837 361.65234,27.9757888 361.65234,29.6876984 L374.765372,29.6876984 C374.456471,19.4336651 366.39026,16.7111626 357.545272,16.7111626 C350.018548,16.7111626 340.242508,19.350901 340.242508,28.7555135 C340.242508,42.4246539 362.348453,38.8483747 362.348453,46.1533933 C362.348453,48.7147236 360.260113,49.8734206 357.545272,49.8734206 C355.992069,49.8734206 354.747767,49.0980519 353.977692,48.009051 C353.198915,47.002814 352.890015,45.5261287 353.124953,44.2062595 L339.942309,44.2062595 C339.703021,55.854214 348.317421,57.9538253 357.862873,57.9538253 C366.781824,57.96252 375.470186,54.699873 375.470186,45.2212084 L375.470186,45.2212084 Z M460.382943,40.0201397 C460.465607,25.958959 456.271525,16.7155187 440.678589,16.7155187 C428.344334,16.7155187 420.978586,24.3254575 420.978586,36.2129923 C420.978586,50.8143175 426.173331,57.96252 441.379053,57.96252 C446.108272,57.96252 450.298003,56.873519 453.47837,54.699873 C456.889325,52.443463 459.682479,48.8715397 460.069692,43.9797473 L447.043674,43.9797473 C446.652111,47.5473145 444.55942,49.9561847 440.448002,49.9561847 C435.170594,49.9561847 434.087267,44.9119322 434.161229,40.0201397 L460.382943,40.0201397 Z M447.195949,32.4886089 L434.400518,32.4886089 C434.705068,28.3678292 435.64047,24.1773534 440.761253,23.9421292 C443.088881,23.8637211 444.637733,24.9527221 445.647097,26.6602756 C446.734774,28.2937771 447.195949,30.4674231 447.195949,32.562661 L447.195949,32.4886089 Z M336.418236,17.8045196 L322.609091,17.8045196 L322.609091,56.873519 L336.418236,56.873519 L336.418236,17.8045196 Z M318.314943,11.1267656 L321.573623,0.79868026 L284.47079,0.79868026 L284.47079,56.873519 L299.054361,56.873519 L299.054361,34.814715 L310.836077,34.814715 L314.081705,24.4866297 L299.054361,24.4866297 L299.054361,11.1311216 L318.314943,11.1311216 L318.314943,11.1267656 Z M336.409535,11.0962736 L339.689968,0.785612249 L326.04615,0.785612249 L322.770067,11.0962736 L336.409535,11.0962736 Z" id="path2386"></path>
                <rect id="rect2388" x="127.197067" y="73.3000534" width="5.06422344" height="31.7901163"></rect>
                <path d="M468.127202,105.634627 C457.550633,105.634627 449.636696,99.7627338 449.636696,89.4390044 C449.636696,78.988951 458.51649,72.6378972 468.457856,72.6378972 C472.012384,72.6378972 475.92367,73.8053063 478.420976,75.4257397 L475.827955,78.5185025 C473.582989,77.2813974 471.163996,76.4581127 468.518766,76.4363327 C464.720598,76.4058406 460.983341,77.5471137 458.45558,80.3218882 C456.393344,82.5870102 455.244758,85.5142449 455.244758,89.6219566 C455.244758,94.0825046 456.619581,96.5305788 459.01247,98.900245 C461.435814,101.300403 465.146968,101.95816 468.78851,101.95816 C471.694782,101.95816 474.5706,100.877871 476.819916,99.6886817 L479.286767,102.663832 C476.715499,104.38881 472.338687,105.634627 468.127202,105.634627" id="path2390"></path>
                <rect id="rect2392" x="414.878851" y="73.3000534" width="5.06857415" height="31.7901163"></rect>
                <polygon id="polygon2394" points="300.381327 77.1028013 288.551753 77.1028013 288.551753 105.090127 283.60935 105.090127 283.60935 77.1028013 271.871141 77.1028013 271.871141 73.3000098 300.933867 73.3000098"></polygon>
                <path d="M36.5805328,103.961922 C34.1615395,105.164179 31.1334471,105.752239 27.6311276,105.752239 C23.1368469,105.752239 18.5773055,104.754714 14.7834886,102.885989 L16.8848803,99.2879293 C20.5699295,101.126163 24.072249,101.953804 27.9617814,101.953804 C30.4982438,101.953804 32.1776169,101.513847 33.7351701,100.664427 C35.5494151,99.6712577 36.5283243,98.3121844 36.5283243,96.5567149 C36.5283243,93.9039085 34.4921932,92.244271 29.5845953,91.0986419 L24.4159548,89.8963848 C19.2777694,88.6941277 16.0451938,85.4793968 16.0451938,81.7158094 C16.0451938,76.2925845 21.3661089,72.4549451 28.9537427,72.4549451 C33.3784121,72.4549451 38.1076311,73.5657261 41.1357235,75.4823678 L38.8516021,78.8016428 C35.7495477,77.0853772 32.5169721,76.2577365 29.2191358,76.2577365 C24.7074522,76.2577365 21.5792936,78.0132061 21.5792936,80.9927128 C21.5792936,83.2883269 23.4849035,84.6561121 27.9269757,85.7233331 L32.6997018,86.8689621 C35.4101925,87.5223627 38.1598396,88.6679917 39.7260943,90.092405 C41.2183869,91.4558342 42.1929522,93.6425482 42.1929522,95.7726341 C42.1972961,99.0178571 40.1220087,102.184672 36.5805328,103.961922" id="path2396"></path>
                <path d="M239.971754,105.090127 L227.359053,88.1322032 C224.992269,84.9566764 220.998319,78.7580828 220.998319,78.7580828 C220.998319,78.7580828 221.446442,84.1246796 221.481248,88.8291639 L221.598717,105.090127 L216.556247,105.090127 L216.556247,73.2956538 L222.564574,73.2956538 L235.312147,90.6064135 C237.79205,93.9823165 241.246512,99.3271334 241.246512,99.3271334 C241.246512,99.3271334 240.493839,93.4639521 240.454683,89.2516962 L240.341564,73.2956538 L245.336177,73.2956538 L245.336177,105.090127 L239.971754,105.090127 L239.971754,105.090127 Z" id="path2398"></path>
                <rect id="rect2400" x="326.964236" y="73.3000534" width="5.06422344" height="31.7901163"></rect>
                <polygon id="polygon2402" points="387.243201 77.0374612 369.831669 77.0374612 369.831669 86.4464297 384.563165 86.4464297 384.563165 90.1925931 369.831669 90.1925931 369.831669 105.090127 364.763095 105.090127 364.763095 73.3000098 387.91756 73.3000098"></polygon>
                <polygon id="polygon2404" points="164.991662 105.090127 164.991662 73.3000098 188.402819 73.3000098 187.728459 77.1028013 170.060237 77.1028013 170.060237 86.5727538 185.122386 86.5727538 185.122386 90.3711893 170.121147 90.3711893 170.121147 101.104383 189.033672 101.104383 189.033672 105.090127"></polygon>
                <path d="M88.0537524,105.634627 C77.4728319,105.634627 69.5632458,99.7627338 69.5632458,89.4390044 C69.5632458,78.988951 78.4430397,72.6378972 88.3800554,72.6378972 C91.9345834,72.6378972 95.8502201,73.8053063 98.3431754,75.4257397 L95.7501538,78.5185025 C93.5095395,77.2813974 91.0861954,76.4581127 88.445316,76.4363327 C84.6471484,76.4058406 80.9055401,77.5471137 78.377779,80.3218882 C76.3155437,82.5870102 75.166957,85.5142449 75.166957,89.6219566 C75.166957,94.0825046 76.5417805,96.5305788 78.9346696,98.900245 C81.3623643,101.300403 85.0691671,101.95816 88.7107092,101.95816 C91.6169817,101.95816 94.4927994,100.877871 96.7464658,99.6886817 L99.2089662,102.663832 C96.6376981,104.38881 92.2652371,105.634627 88.0537524,105.634627" id="path2406"></path>
            </g>
        </g>
    </g>
</svg>