<?xml version="1.0" encoding="UTF-8"?>
<!DOCTYPE svg PUBLIC "-//W3C//DTD SVG 1.1//EN" "http://www.w3.org/Graphics/SVG/1.1/DTD/svg11.dtd">
<!-- Creator: CorelDRAW X5 -->
<svg xmlns="http://www.w3.org/2000/svg" xml:space="preserve"  style="shape-rendering:geometricPrecision; text-rendering:geometricPrecision; image-rendering:optimizeQuality; fill-rule:evenodd; clip-rule:evenodd"
viewBox="0 0 13547 5114"
 xmlns:xlink="http://www.w3.org/1999/xlink"
 xmlns:svg="http://www.w3.org/2000/svg">
 <defs>
  <style type="text/css">
   <![CDATA[
    .fil2 {fill:#015975}
    .fil0 {fill:white}
    .fil1 {fill:#015975;fill-rule:nonzero}
    .fil3 {fill:white;fill-rule:nonzero}
   ]]>
  </style>
 </defs>
 <g id="Layer_x0020_1">
  <metadata id="CorelCorpID_0Corel-Layer"/>
 </g>
 <g id="svg2">
  <metadata id="CorelCorpID_1Corel-Layer"/>
  <path class="fil0" d="M791 34l11964 0c416,0 757,340 757,757l0 3532c0,416 -340,757 -757,757l-11964 0c-416,0 -757,-340 -757,-757l0 -3532c0,-416 340,-757 757,-757z"/>
  <path class="fil1" d="M791 0l11964 0c218,0 415,89 559,232 143,143 232,341 232,559l0 3532c0,218 -89,415 -232,559 -143,143 -341,232 -559,232l-11964 0c-218,0 -415,-89 -559,-232 -143,-143 -232,-341 -232,-559l0 -3532c0,-218 89,-415 232,-559 143,-143 341,-232 559,-232zm11964 69l-11964 0c-199,0 -379,81 -510,212 -131,131 -212,311 -212,510l0 3532c0,199 81,379 212,510 131,131 311,212 510,212l11964 0c199,0 379,-81 510,-212 131,-131 212,-311 212,-510l0 -3532c0,-199 -81,-379 -212,-510 -131,-131 -311,-212 -510,-212z"/>
  <path class="fil2" d="M4634 34l8122 0c416,0 757,340 757,757l0 3532c0,416 -340,757 -757,757l-8122 0 0 -5046z"/>
  <path class="fil3" d="M5738 1606l160 0 339 810 -181 0 -72 -180 -334 0 -73 180 -176 0 339 -810zm182 473l0 0 -103 -261 -103 261 207 0zm353 -63l0 0 0 -2c-6,-224 171,-410 394,-416 6,0 13,0 19,0 116,-5 229,40 310,124l-112 131c-53,-56 -125,-89 -202,-91 -133,0 -229,113 -229,250l0 2c0,138 94,252 229,252 90,0 146,-37 207,-94l111 114c-150,173 -412,192 -586,42 -91,-78 -143,-192 -144,-312l3 -1zm810 0l0 0 0 -2c5,-234 198,-420 432,-415 109,2 213,46 291,124l-110 131c-53,-56 -125,-89 -202,-91 -133,0 -229,113 -229,250l0 2c0,138 94,252 229,252 90,0 146,-37 207,-94l111 114c-150,173 -412,192 -586,42 -91,-79 -143,-192 -144,-312l1 -1zm869 -404l0 0 361 0c85,-5 168,24 230,82 47,50 71,116 69,184l0 2c6,112 -63,214 -169,249l193 287 -203 0 -171 -257 -138 0 0 257 -172 0 0 -804zm350 391l0 0c85,0 133,-46 133,-114l0 -1c0,-76 -52,-115 -138,-115l-172 0 0 231 177 -1z"/>
  <polygon class="fil3" points="8768,1612 9364,1612 9364,1770 8941,1770 8941,1933 9313,1933 9313,2090 8941,2090 8941,2259 9370,2259 9370,2416 8768,2416 "/>
  <path class="fil3" d="M9524 1612l308 0c248,0 420,172 420,400l0 2c0,226 -172,402 -420,402l-308 0 0 -804zm308 644l0 0c125,7 232,-90 238,-215 0,-9 0,-18 0,-26l0 -2c7,-126 -90,-234 -216,-241 -7,0 -15,0 -22,0l-134 0 0 485 134 0z"/>
  <path class="fil3" d="M10415 1612l174 0 0 804 -174 0 0 -804zm555 163l0 0 -240 0 0 -163 655 0 0 163 -240 0 0 641 -174 0 0 -641zm547 -163l0 0 596 0 0 157 -423 0 0 163 373 0 0 157 -373 0 0 169 429 0 0 157 -602 0 0 -804z"/>
  <path class="fil3" d="M12273 1612l308 0c248,0 420,172 420,400l0 2c0,226 -172,402 -420,402l-308 0 0 -804zm308 644l0 0c125,7 232,-90 238,-215 0,-9 0,-18 0,-26l0 -2c7,-126 -90,-234 -216,-241 -7,0 -15,0 -22,0l-134 0 0 485 134 0z"/>
  <path class="fil3" d="M7097 3682l0 0 104 -126c64,61 149,96 237,98 71,0 115,-29 115,-76l0 -2c0,-45 -27,-69 -160,-104 -160,-42 -263,-87 -263,-247l0 -2c0,-147 116,-243 277,-243 108,-1 212,35 295,104l-90 133c-59,-47 -132,-75 -208,-80 -67,0 -102,31 -102,69l0 2c0,53 35,69 171,106 161,43 252,102 252,242l0 2c0,161 -121,251 -292,251 -125,0 -245,-46 -337,-129l1 0z"/>
  <path class="fil3" d="M6281 3453l0 0 0 -462 173 0 0 458c0,132 65,200 171,200 107,0 171,-66 171,-194l0 -464 173 0 0 456c0,245 -135,365 -349,365 -213,0 -344,-121 -344,-359l3 0z"/>
  <path class="fil3" d="M5473 2991l0 0 369 0c76,-5 151,21 208,72 37,37 56,87 54,139l0 2c2,73 -39,140 -104,173 92,35 149,90 149,199l0 2c0,148 -118,222 -298,222l-379 0 0 -809zm378 653l0 0c77,0 124,-28 124,-88l0 -2c0,-54 -40,-88 -130,-88l-202 0 0 178 208 0zm-46 -326l0 0c77,0 126,-25 126,-86l0 -2c0,-53 -41,-83 -115,-83l-173 0 0 171 162 0z"/>
  <path class="fil3" d="M7886 2991l175 0 0 809 -175 0 0 -809zm373 0l0 0 161 0 372 498 0 -498 173 0 0 809 -149 0 -385 -514 0 514 -173 0 0 -809zm897 0l0 0 600 0 0 158 -426 0 0 164 374 0 0 158 -374 0 0 170 431 0 0 158 -605 0 0 -809z"/>
  <path class="fil3" d="M9863 3682l104 -126c64,61 149,96 237,98 71,0 115,-29 115,-76l0 -2c0,-45 -27,-69 -160,-104 -160,-42 -263,-87 -263,-247l0 -2c0,-147 116,-242 277,-242 108,-1 212,35 295,104l-91 133c-59,-47 -132,-75 -208,-80 -67,0 -104,31 -104,69l0 2c0,53 35,69 171,106 161,43 252,102 252,242l0 2c0,161 -120,251 -292,251 -125,0 -245,-46 -337,-129l3 0zm715 0l0 0 104 -126c64,61 149,96 237,98 72,0 115,-29 115,-76l0 -2c0,-45 -27,-69 -160,-104 -160,-42 -263,-87 -263,-247l0 -2c0,-147 116,-242 277,-242 108,-1 212,35 295,104l-90 133c-59,-47 -132,-75 -208,-80 -67,0 -104,31 -104,69l0 2c0,53 35,69 173,106 161,43 252,102 252,243l0 2c0,161 -120,251 -292,251 -125,0 -245,-46 -337,-129l1 0z"/>
  <polygon class="fil1" points="3182,3100 1522,3100 1462,3299 1904,3299 1988,3574 2716,3574 2800,3299 3242,3299 "/>
  <path class="fil1" d="M1793 1981c-127,176 -88,422 87,550l397 290c44,32 54,94 22,138l60 44 210 -291c49,-67 75,-148 75,-231 0,-21 -2,-42 -5,-63 -16,-103 -73,-196 -157,-257l-397 -290c-21,-15 -35,-39 -39,-64 -1,-5 -1,-11 -1,-16 0,-21 6,-41 19,-58l-60 -44 -210 292zm239 -1164l0 0c-71,97 -109,215 -108,335 0,30 2,61 7,91 23,150 105,284 228,373l499 364c66,48 110,119 122,200 3,16 4,32 4,49 0,64 -20,127 -58,179l48 35 393 -548c185,-256 128,-612 -127,-798l-603 -440c-79,-57 -96,-168 -39,-247l-48 -35 -319 442zm-1019 2924l0 0 454 0c112,0 200,31 256,87 45,44 69,105 67,167l0 3c0,111 -58,173 -129,212 113,44 183,110 183,242l0 3c0,180 -146,270 -367,270l-465 0 0 -984zm408 398l0 0c95,0 155,-31 155,-104l0 -3c0,-65 -50,-102 -141,-102l-212 0 0 208 198 1zm58 396l0 0c95,0 153,-34 153,-107l0 -3c0,-66 -49,-107 -160,-107l-249 0 0 216 257 0zm460 -794l0 0 455 0c112,0 200,31 256,87 45,44 69,105 67,167l0 3c0,111 -58,173 -129,212 113,44 183,110 183,242l0 3c0,180 -146,270 -367,270l-466 0 0 -984 0 0zm409 398l0 0c95,0 155,-31 155,-104l0 -3c0,-65 -50,-102 -141,-102l-213 0 0 208 199 1zm57 396l0 0c95,0 153,-34 153,-107l0 -3c0,-66 -49,-107 -160,-107l-249 0 0 216 257 0zm460 -794l0 0 455 0c112,0 200,31 256,87 45,44 69,105 67,167l0 3c0,111 -58,173 -129,212 113,44 183,110 183,242l0 3c0,180 -146,270 -367,270l-466 0 0 -984 0 0zm409 398l0 0c95,0 155,-31 155,-104l0 -3c0,-65 -50,-102 -141,-102l-213 0 0 208 199 1zm57 396l0 0c95,0 153,-34 153,-107l0 -3c0,-66 -49,-107 -160,-107l-249 0 0 216 256 0z"/>
  <path class="fil1" d="M3715 4598l0 -1c0,-62 50,-113 112,-113 62,0 113,50 113,112l0 1c0,62 -50,113 -112,113 -62,0 -113,-50 -113,-112zm215 -1l0 0 0 -1c0,-56 -46,-102 -103,-102 -56,0 -102,46 -102,103l0 1c0,56 46,102 103,102 56,0 102,-46 102,-103zm-146 -61l0 0 52 0c13,-1 25,4 34,12 6,6 9,14 9,22l0 1c0,19 -12,30 -30,34l36 46 -21 0 -33 -44 -30 0 0 44 -17 0 0 -115zm50 57l0 0c16,0 27,-7 27,-21l0 -1c0,-12 -10,-20 -26,-20l-34 0 0 41 33 0z"/>
 </g>
</svg>
