<svg id="visual" viewBox="0 0 900 600" width="900" height="600" xmlns="http://www.w3.org/2000/svg" xmlns:xlink="http://www.w3.org/1999/xlink" version="1.1"><path d="M0 241L13.7 233C27.3 225 54.7 209 82 194C109.3 179 136.7 165 163.8 161C191 157 218 163 245.2 187C272.3 211 299.7 253 327 254C354.3 255 381.7 215 409 186C436.3 157 463.7 139 491 150C518.3 161 545.7 201 573 217C600.3 233 627.7 225 654.8 230C682 235 709 253 736.2 236C763.3 219 790.7 167 818 144C845.3 121 872.7 127 886.3 130L900 133L900 0L886.3 0C872.7 0 845.3 0 818 0C790.7 0 763.3 0 736.2 0C709 0 682 0 654.8 0C627.7 0 600.3 0 573 0C545.7 0 518.3 0 491 0C463.7 0 436.3 0 409 0C381.7 0 354.3 0 327 0C299.7 0 272.3 0 245.2 0C218 0 191 0 163.8 0C136.7 0 109.3 0 82 0C54.7 0 27.3 0 13.7 0L0 0Z" fill="#ede9e3"></path><path d="M0 373L13.7 373C27.3 373 54.7 373 82 362C109.3 351 136.7 329 163.8 333C191 337 218 367 245.2 383C272.3 399 299.7 401 327 403C354.3 405 381.7 407 409 399C436.3 391 463.7 373 491 365C518.3 357 545.7 359 573 366C600.3 373 627.7 385 654.8 390C682 395 709 393 736.2 377C763.3 361 790.7 331 818 326C845.3 321 872.7 341 886.3 351L900 361L900 131L886.3 128C872.7 125 845.3 119 818 142C790.7 165 763.3 217 736.2 234C709 251 682 233 654.8 228C627.7 223 600.3 231 573 215C545.7 199 518.3 159 491 148C463.7 137 436.3 155 409 184C381.7 213 354.3 253 327 252C299.7 251 272.3 209 245.2 185C218 161 191 155 163.8 159C136.7 163 109.3 177 82 192C54.7 207 27.3 223 13.7 231L0 239Z" fill="#e9e4dc"></path><path d="M0 481L13.7 473C27.3 465 54.7 449 82 437C109.3 425 136.7 417 163.8 420C191 423 218 437 245.2 443C272.3 449 299.7 447 327 455C354.3 463 381.7 481 409 479C436.3 477 463.7 455 491 450C518.3 445 545.7 457 573 462C600.3 467 627.7 465 654.8 468C682 471 709 479 736.2 466C763.3 453 790.7 419 818 412C845.3 405 872.7 425 886.3 435L900 445L900 359L886.3 349C872.7 339 845.3 319 818 324C790.7 329 763.3 359 736.2 375C709 391 682 393 654.8 388C627.7 383 600.3 371 573 364C545.7 357 518.3 355 491 363C463.7 371 436.3 389 409 397C381.7 405 354.3 403 327 401C299.7 399 272.3 397 245.2 381C218 365 191 335 163.8 331C136.7 327 109.3 349 82 360C54.7 371 27.3 371 13.7 371L0 371Z" fill="#e5dfd6"></path><path d="M0 547L13.7 540C27.3 533 54.7 519 82 516C109.3 513 136.7 521 163.8 529C191 537 218 545 245.2 544C272.3 543 299.7 533 327 534C354.3 535 381.7 547 409 551C436.3 555 463.7 551 491 549C518.3 547 545.7 547 573 543C600.3 539 627.7 531 654.8 534C682 537 709 551 736.2 549C763.3 547 790.7 529 818 528C845.3 527 872.7 543 886.3 551L900 559L900 443L886.3 433C872.7 423 845.3 403 818 410C790.7 417 763.3 451 736.2 464C709 477 682 469 654.8 466C627.7 463 600.3 465 573 460C545.7 455 518.3 443 491 448C463.7 453 436.3 475 409 477C381.7 479 354.3 461 327 453C299.7 445 272.3 447 245.2 441C218 435 191 421 163.8 418C136.7 415 109.3 423 82 435C54.7 447 27.3 463 13.7 471L0 479Z" fill="#dfd8cd"></path><path d="M0 601L13.7 601C27.3 601 54.7 601 82 601C109.3 601 136.7 601 163.8 601C191 601 218 601 245.2 601C272.3 601 299.7 601 327 601C354.3 601 381.7 601 409 601C436.3 601 463.7 601 491 601C518.3 601 545.7 601 573 601C600.3 601 627.7 601 654.8 601C682 601 709 601 736.2 601C763.3 601 790.7 601 818 601C845.3 601 872.7 601 886.3 601L900 601L900 557L886.3 549C872.7 541 845.3 525 818 526C790.7 527 763.3 545 736.2 547C709 549 682 535 654.8 532C627.7 529 600.3 537 573 541C545.7 545 518.3 545 491 547C463.7 549 436.3 553 409 549C381.7 545 354.3 533 327 532C299.7 531 272.3 541 245.2 542C218 543 191 535 163.8 527C136.7 519 109.3 511 82 514C54.7 517 27.3 531 13.7 538L0 545Z" fill="#dad1c4"></path></svg>